<svg width="241" height="199" viewBox="0 0 241 199" fill="none" xmlns="http://www.w3.org/2000/svg">
<circle cx="123.505" cy="96.0819" r="96.0053" fill="#E4F6FF"/>
<path d="M77.789 180.256L101.932 96.3951C109.15 98.7341 109.97 102.543 109.897 103.631C105.068 123.269 95.8904 163.447 94.4617 171.247C93.0331 179.046 82.6463 180.992 77.789 180.256Z" fill="#00699E"/>
<path d="M101.932 96.3951L77.789 180.256C72.4426 179.416 59.3386 177.524 43.1258 171.583C26.9131 165.642 17.2359 157.735 13.3586 152.911C12.6037 151.972 13.5852 148.635 15.6555 143.87C24.2182 124.162 51.4063 80.0221 51.4063 80.0221L101.932 96.3951Z" fill="#068CD0"/>
<circle cx="7.71041" cy="7.71041" r="7.71041" transform="matrix(-0.822498 -0.568768 -0.568768 0.822498 90.5142 107.531)" fill="#1A9DE0"/>
<circle cx="6.42534" cy="6.42534" r="6.42534" transform="matrix(-0.853907 -0.520426 -0.520426 0.853907 64.38 96.251)" fill="#1A9DE0"/>
<path d="M48.8316 127.143C64.062 138.976 76.3025 127.203 83.9935 114.583C84.2732 113.792 84.4922 113.056 84.6564 112.373C83.9005 116.911 81.7139 123.372 72.5231 129.809C63.3323 136.246 52.644 131.018 48.8316 127.143Z" fill="#00699E"/>
<path d="M56.672 119.258C49.0388 114.004 54.3101 105.025 58.7827 100.979C57.4244 103.208 54.3778 107.614 53.9205 110.947C53.4631 114.28 55.6362 118.171 56.672 119.258Z" fill="#00699E"/>
<path fill-rule="evenodd" clip-rule="evenodd" d="M58.7537 120.301C58.0599 120.077 57.3647 119.735 56.672 119.258C49.0388 114.004 54.3101 105.025 58.7827 100.979C58.7827 100.979 60.789 97.6872 57.8314 95.1321C54.8738 92.5771 51.4357 95.7491 51.4357 95.7491C44.6624 103.159 39.6844 120.037 48.8316 127.143C64.062 138.976 76.3025 127.203 83.9935 114.583C84.2732 113.792 84.4922 113.056 84.6564 112.373C85.2408 109.94 85.1376 106.646 82.3943 104.974C81.0948 104.182 79.8162 103.909 78.6462 104.195C75.6556 111.41 67.4902 124.733 58.7537 120.301Z" fill="#A5D4EE"/>
<path d="M75.2681 107.265C76.1802 105.518 77.3462 104.512 78.6462 104.195C75.6556 111.41 67.4902 124.733 58.7537 120.301C65.7065 122.545 72.5238 112.891 75.2681 107.265Z" fill="#B3E3FE"/>
<path d="M107.13 91.6091C107.76 82.763 113.951 59.9709 117.829 46.8061C118.136 45.7638 118.825 44.868 119.793 44.3745C138.702 34.7355 162.352 49.6106 178.286 58.4492C194.908 67.6695 208.314 69.5462 216.927 68.9234C220.518 68.6636 224.424 72.164 223.634 75.6776L214.284 117.292C213.971 118.688 212.986 119.86 211.593 120.184C203.485 122.068 185.028 121.371 160.818 106.251C132.365 88.4809 117.895 91.5013 110.596 93.868C108.712 94.4792 106.989 93.5857 107.13 91.6091Z" fill="#068CD0"/>
<path d="M113.266 86.2961C112.906 80.8113 118.32 61.3177 121.71 49.895C121.821 49.5216 122.068 49.208 122.41 49.0212C138.134 40.4297 162.87 55.2328 176.126 62.5915C192.889 71.8965 208.102 74.9775 215.24 74.3503C216.525 74.2375 217.924 75.4936 217.646 76.7523L209.323 114.425C209.211 114.928 208.866 115.347 208.368 115.477C202.057 117.13 182.763 114.919 161.801 101.817C136.319 85.8906 120.642 85.9312 114.702 87.1687C114.006 87.3137 113.313 87.0056 113.266 86.2961Z" fill="#068CD0" stroke="#E4F6FF" stroke-width="1.5401"/>
<path d="M151.6 82.0217L155.026 70.7544C155.292 69.8767 156.197 69.3937 157.075 69.6605L162.035 71.1684C163.852 71.7207 165.105 72.6591 165.759 73.8835C166.313 74.9216 166.4 76.1745 165.99 77.5217L165.978 77.5625C165.295 79.8078 163.751 80.8545 161.799 81.0415L163.176 84.3589C163.364 84.8398 163.469 85.2285 163.32 85.7184C163.053 86.5961 162.145 86.9442 161.39 86.7146C160.675 86.4974 160.311 86.0077 160.087 85.4266L158.204 80.6176L155.693 79.8543L154.744 82.9773C154.477 83.855 153.572 84.338 152.694 84.0712C151.817 83.8044 151.334 82.8994 151.6 82.0217ZM156.537 77.0783L159.721 78.0463C161.252 78.5117 162.378 77.9621 162.744 76.7578L162.757 76.717C163.166 75.3698 162.438 74.3904 160.907 73.925L157.784 72.9756L156.537 77.0783ZM165.025 89.6929L168.475 78.344C168.736 77.4867 169.641 77.0037 170.498 77.2643C171.356 77.525 171.839 78.4299 171.578 79.2872L171.535 79.4301C172.6 78.6391 173.871 78.2004 175.483 78.6906C178.035 79.4662 179.856 82.205 178.745 85.8587L178.732 85.8995C177.622 89.5532 174.625 90.8275 172.033 90.0395C170.38 89.5368 169.589 88.4713 169.121 87.3703L168.128 90.6361C167.867 91.4934 166.962 91.9764 166.105 91.7158C165.248 91.4552 164.765 90.5502 165.025 89.6929ZM172.038 87.1643C173.487 87.6049 175.071 86.7934 175.63 84.9563L175.642 84.9155C176.194 83.0988 175.336 81.5222 173.887 81.0817C172.437 80.6411 170.867 81.4793 170.315 83.2959L170.302 83.3367C169.75 85.1534 170.588 86.7238 172.038 87.1643Z" fill="#E4F6FF"/>
<path d="M223.489 132.123C216.545 134.518 197.114 135.003 170.981 118.682C154.705 108.517 143.005 105.155 134.605 104.582C126.771 104.048 132.189 94.653 131.435 93.1345C131.246 92.7525 130.639 92.6817 130.243 92.5237C128.915 91.9935 125.726 92.8524 120.289 92.965C119.701 92.9772 119.26 92.434 119.387 91.859C121.802 80.9327 125.732 66.8313 128.368 57.9642C128.435 57.7401 128.585 57.5514 128.788 57.4356C147.886 46.5456 172.502 61.6523 188.766 70.6738C202.207 78.1294 213 80.9358 221.35 81.3639C221.967 81.3956 222.391 82.0003 222.177 82.5804C220.64 86.7368 217.544 93.3905 219.695 92.3414L232.603 86.7186C233.297 86.4165 234.039 87.0302 233.874 87.7683L224.053 131.476C223.986 131.776 223.78 132.023 223.489 132.123Z" fill="black" fill-opacity="0.1"/>
<path d="M119.831 108.12C120.461 99.2737 126.652 76.4816 130.53 63.3169C130.837 62.2745 131.527 61.3787 132.495 60.8852C151.403 51.2462 175.053 66.1213 190.987 74.9599C207.609 84.1802 221.016 86.0569 229.628 85.4341C233.22 85.1744 237.125 88.6748 236.336 92.1883L226.986 133.803C226.672 135.199 225.688 136.371 224.294 136.695C216.187 138.578 197.73 137.882 173.519 122.762C145.067 104.992 130.596 108.012 123.298 110.379C121.413 110.99 119.69 110.096 119.831 108.12Z" fill="#068CD0"/>
<path d="M125.968 102.807C125.607 97.322 131.021 77.8285 134.411 66.4057C134.522 66.0323 134.769 65.7187 135.111 65.532C150.836 56.9404 175.571 71.7435 188.828 79.1023C205.59 88.4073 220.804 91.4883 227.942 90.8611C229.226 90.7483 230.626 92.0043 230.348 93.2631L222.024 130.936C221.913 131.439 221.567 131.857 221.072 131.999C214.91 133.765 197.383 132.845 174.502 117.254C149.647 100.319 133.405 102.162 127.397 103.654C126.707 103.825 126.014 103.516 125.968 102.807Z" fill="#068CD0" stroke="#E4F6FF" stroke-width="1.5401"/>
<path d="M164.302 98.5324L167.727 87.2652C167.994 86.3875 168.899 85.9045 169.777 86.1713L174.737 87.6792C176.553 88.2314 177.806 89.1699 178.46 90.3943C179.014 91.4323 179.101 92.6853 178.692 94.0324L178.679 94.0733C177.997 96.3185 176.452 97.3652 174.5 97.5522L175.877 100.87C176.066 101.351 176.171 101.739 176.022 102.229C175.755 103.107 174.846 103.455 174.091 103.225C173.377 103.008 173.013 102.518 172.788 101.937L170.905 97.1283L168.395 96.3651L167.445 99.488C167.178 100.366 166.273 100.849 165.396 100.582C164.518 100.315 164.035 99.4101 164.302 98.5324ZM169.238 93.5891L172.423 94.5571C173.954 95.0225 175.079 94.4728 175.446 93.2685L175.458 93.2277C175.868 91.8805 175.14 90.9011 173.609 90.4357L170.486 89.4863L169.238 93.5891ZM177.727 106.204L181.177 94.8548C181.437 93.9975 182.342 93.5145 183.2 93.7751C184.057 94.0357 184.54 94.9407 184.279 95.798L184.236 95.9409C185.301 95.1499 186.572 94.7111 188.185 95.2013C190.736 95.977 192.557 98.7157 191.446 102.369L191.434 102.41C190.323 106.064 187.327 107.338 184.735 106.55C183.081 106.048 182.29 104.982 181.822 103.881L180.829 107.147C180.569 108.004 179.664 108.487 178.806 108.227C177.949 107.966 177.466 107.061 177.727 106.204ZM184.739 103.675C186.188 104.116 187.773 103.304 188.331 101.467L188.344 101.426C188.896 99.6096 188.037 98.033 186.588 97.5924C185.139 97.1518 183.568 97.99 183.016 99.8067L183.004 99.8475C182.452 101.664 183.29 103.235 184.739 103.675Z" fill="#E4F6FF"/>
<path d="M62.6089 48.4554C61.9801 49.0374 61.448 49.6902 61.0117 50.397C58.3618 54.6906 59.2478 60.9808 63.4806 65.5535C66.6466 68.9738 70.8394 70.6591 74.6126 70.3365C75.7318 70.2408 76.8142 69.9684 77.8218 69.5122C78.7064 69.1117 79.5334 68.5696 80.2773 67.881C84.7255 63.7635 84.5185 55.9683 79.5889 50.6428C74.6593 45.3172 67.0571 44.3379 62.6089 48.4554Z" fill="#068CD0"/>
<path d="M61.0117 50.397C58.3618 54.6906 59.2478 60.9808 63.4806 65.5535C66.6466 68.9738 70.8394 70.6591 74.6126 70.3365C75.7318 70.2408 76.8142 69.9684 77.8218 69.5122C71.5844 72.4093 65.333 70.5315 61.2596 65.1448C57.0001 59.5119 59.2475 52.7064 61.0117 50.397Z" fill="#00699E"/>
<path d="M64.7298 50.7458C64.2577 51.1828 63.8583 51.6727 63.5306 52.2036C61.5412 55.427 62.1806 60.2188 65.4385 63.7384C67.8748 66.3704 71.0814 67.6456 73.9345 67.4016C75.5207 67.266 77.0001 66.6617 78.193 65.5575C81.5231 62.4749 81.423 56.5527 77.6291 52.4541C73.8276 48.3473 68.0529 47.6697 64.7298 50.7458Z" stroke="#E4F6FF" stroke-width="0.73167"/>
<path d="M105.911 30.1193C106.365 30.5403 106.75 31.0124 107.066 31.5237C108.983 34.6294 108.342 39.1793 105.28 42.4869C102.99 44.961 99.9572 46.1801 97.2279 45.9467C96.4183 45.8775 95.6354 45.6804 94.9065 45.3504C94.2667 45.0607 93.6685 44.6686 93.1304 44.1705C89.9129 41.1922 90.0626 35.5536 93.6284 31.7015C97.1941 27.8493 102.693 27.141 105.911 30.1193Z" fill="#068CD0"/>
<path d="M107.066 31.5237C108.983 34.6294 108.342 39.1793 105.28 42.4869C102.99 44.961 99.9572 46.1801 97.2279 45.9467C96.4183 45.8775 95.6354 45.6804 94.9065 45.3504C99.4183 47.446 103.94 46.0877 106.887 42.1913C109.968 38.1169 108.342 33.1942 107.066 31.5237Z" fill="#00699E"/>
<path d="M104.376 31.7761C104.718 32.0922 105.007 32.4466 105.244 32.8305C106.683 35.1621 106.22 38.6282 103.864 41.1741C102.102 43.0779 99.7821 44.0003 97.7184 43.8238C96.571 43.7257 95.5009 43.2886 94.638 42.4899C92.2292 40.2602 92.3017 35.9764 95.0459 33.0118C97.7957 30.0411 101.973 29.551 104.376 31.7761Z" stroke="#E4F6FF" stroke-width="0.529244"/>
<path d="M147.573 150.015C147.992 149.481 147.898 148.708 147.364 148.289C146.83 147.871 146.057 147.964 145.638 148.499L147.573 150.015ZM111 158.495L122.924 166.198L123.634 152.02L111 158.495ZM145.638 148.499C143.073 151.771 140.762 154.069 137.383 155.579C133.972 157.104 129.347 157.881 122.062 157.818L122.041 160.277C129.468 160.341 134.505 159.559 138.386 157.824C142.299 156.075 144.909 153.415 147.573 150.015L145.638 148.499Z" fill="#A5D4EE"/>
<path d="M159.733 126.65L150.738 137.633L164.747 139.931L159.733 126.65ZM142.309 160.57C141.715 160.899 141.499 161.647 141.828 162.241C142.157 162.835 142.905 163.051 143.499 162.722L142.309 160.57ZM156.73 137.359C155.2 146.206 152.503 154.93 142.309 160.57L143.499 162.722C154.693 156.528 157.584 146.848 159.153 137.778L156.73 137.359Z" fill="#A5D4EE"/>
</svg>
