<svg width="199" height="197" viewBox="0 0 199 197" fill="none" xmlns="http://www.w3.org/2000/svg">
<circle cx="97.7282" cy="98.5" r="96.0053" fill="#E4F6FF"/>
<path d="M147.048 57.182C141.993 54.2004 127.214 48.2369 98.0455 48.6259C68.8771 49.0148 57.9876 53.2928 50.9872 57.182C51.9515 58.2598 54.9166 59.8092 60.71 61.2112C68.1562 63.0131 80.2749 64.5713 98.8233 64.5713C131.803 64.5713 144.715 59.6451 147.048 57.182Z" fill="#00699E"/>
<path d="M98.8233 64.5713C80.2749 64.5713 68.1562 63.0131 60.71 61.2112C54.9166 59.8092 51.9515 58.2598 50.9872 57.182L51.6961 65.3491C52.8372 66.2651 55.7962 67.5618 61.0989 68.7645C68.5542 70.4555 80.6421 71.9606 98.8233 71.9606C129.936 71.9606 143.483 67.5529 146.368 65.3491L147.048 57.182C144.715 59.6451 131.803 64.5713 98.8233 64.5713Z" fill="#068CD0"/>
<path fill-rule="evenodd" clip-rule="evenodd" d="M60.71 169.189C66.414 171.522 82.3335 176.034 100.379 175.411C118.425 174.789 132.788 171.004 137.715 169.189L137.909 166.855L145.817 71.9606C143.116 74.1644 129.936 78.5721 98.8233 78.5721C80.7342 78.5721 68.8062 77.0822 61.4878 75.4017C56.2187 74.1918 53.3391 72.8831 52.27 71.9606L60.71 169.189ZM134.992 82.4612L133.825 82.6134L126.047 83.628C125.057 105.773 123.123 149.903 122.949 157.132C122.94 157.478 122.936 157.74 122.936 157.91C125.736 158.844 129.029 157.003 130.325 155.966L134.992 82.4612ZM115.158 84.4058H113.602H106.213C105.844 106.988 105.128 151.506 105.052 158.299C105.048 158.682 105.046 158.944 105.046 159.077C107.846 160.321 110.88 159.336 112.046 158.688L115.158 84.4058Z" fill="#068CD0"/>
<path fill-rule="evenodd" clip-rule="evenodd" d="M133.825 82.6134L126.047 83.628C125.057 105.773 123.123 149.903 122.949 157.132C126.07 157.444 128.648 155.966 129.547 155.188L133.825 82.6134Z" fill="#00699E"/>
<path d="M130.325 155.966L134.992 82.4612L133.825 82.6134L129.547 155.188C128.648 155.966 126.07 157.444 122.949 157.132C122.94 157.478 122.936 157.74 122.936 157.91C125.736 158.844 129.029 157.003 130.325 155.966Z" fill="#02527B"/>
<path fill-rule="evenodd" clip-rule="evenodd" d="M113.602 84.4058H106.213C105.844 106.988 105.128 151.506 105.052 158.299C108.169 159.233 110.236 158.429 110.88 157.91L113.602 84.4058Z" fill="#00699E"/>
<path d="M112.046 158.688L115.158 84.4058H113.602L110.88 157.91C110.236 158.429 108.169 159.233 105.052 158.299C105.048 158.682 105.046 158.944 105.046 159.077C107.846 160.321 110.88 159.336 112.046 158.688Z" fill="#02527B"/>
<path fill-rule="evenodd" clip-rule="evenodd" d="M64.988 82.7656L72.7662 83.7802C73.4759 99.6598 74.6713 126.843 75.3553 143.62C75.6252 150.24 75.8155 155.239 75.8649 157.285C72.7434 157.596 70.165 156.118 69.266 155.34L64.988 82.7656Z" fill="#00699E"/>
<path d="M68.4882 156.118L63.8213 82.6134L64.988 82.7656L69.266 155.34C70.165 156.118 72.7434 157.596 75.8649 157.285C75.8732 157.631 75.8775 157.892 75.8775 158.062C73.0774 158.996 69.7846 157.155 68.4882 156.118Z" fill="#02527B"/>
<path fill-rule="evenodd" clip-rule="evenodd" d="M85.2114 84.558H92.6008C92.9689 107.14 93.6857 151.659 93.761 158.451C90.6446 159.385 88.5777 158.581 87.9338 158.062L85.2114 84.558Z" fill="#00699E"/>
<path d="M86.7671 158.84L83.6558 84.558H85.2114L87.9338 158.062C88.5777 158.581 90.6446 159.385 93.761 158.451C93.7653 158.834 93.7675 159.097 93.7675 159.229C90.9673 160.474 87.9338 159.488 86.7671 158.84Z" fill="#02527B"/>
<path d="M98.8233 71.9606C80.6421 71.9606 68.5542 70.4555 61.0989 68.7645C55.7962 67.5618 52.8372 66.2651 51.6961 65.3491L52.27 71.9606C53.3391 72.8831 56.2187 74.1918 61.4878 75.4017C68.8062 77.0822 80.7342 78.5721 98.8233 78.5721C129.936 78.5721 143.116 74.1644 145.817 71.9606L146.368 65.3491C143.483 67.5529 129.936 71.9606 98.8233 71.9606Z" fill="#A5D4EE"/>
<g opacity="0.4">
<path d="M100.379 175.393C82.3334 176.015 66.414 171.504 60.7099 169.17L52.27 71.942L51.6961 65.3305L50.9871 57.1635C51.9515 58.2412 54.9165 59.7907 60.7099 61.1926L61.0988 68.7459L61.4878 75.3831C62.0863 80.0944 62.8616 85.5399 63.7973 91.3877C77.8221 113.167 78.9356 167.854 91.0451 169.17C108.935 171.115 113.602 172.67 137.909 166.837L137.715 169.17C132.788 170.985 118.424 174.77 100.379 175.393Z" fill="#00699E"/>
</g>
<path d="M5.89693 131.951C4.41719 136.153 6.32882 137.757 7.4696 138.034L9.59048 138.636L15.0363 140.181L16.2528 136.808L10.2951 135.068L9.07181 134.711C11.0039 128.816 15.0422 116.891 15.7385 116.353C15.9697 116.174 16.5753 116.268 17.3528 116.512C18.9166 117.001 21.1761 118.095 22.4843 118.786L24.1361 115.077C23.1424 114.742 20.9785 114.044 18.9137 113.457C18.3752 113.304 17.8434 113.159 17.3409 113.029C14.9116 112.404 13.0119 114.173 12.3656 115.136C10.8259 118.99 7.37666 127.749 5.89693 131.951Z" fill="#00669A"/>
<path d="M41.6153 94.9684C53.9119 99.368 48.7434 123.982 44.622 135.74C40.6128 147.642 29.0177 170.596 14.7111 167.193C12.5469 166.679 11.0164 164.56 10.0285 161.496C10.3945 170.182 13.8877 173.94 18.0209 175.009C21.5417 175.919 25.5268 174.877 28.4387 173.267C34.7691 169.765 44.7018 158.962 51.5544 139.765C60.1202 115.769 57.2421 95.4034 50.071 90.171C44.3342 85.985 34.6535 93.553 30.5302 97.8602C34.06 94.9674 37.8265 93.6128 41.6153 94.9684Z" fill="#068CD0"/>
<path d="M44.622 135.74C48.7434 123.982 53.9119 99.368 41.6153 94.9684C37.8265 93.6128 34.06 94.9674 30.5302 97.8602C26.1592 101.442 22.1512 107.383 18.9137 113.457C20.9785 114.044 23.1424 114.742 24.1361 115.077L22.4843 118.786C21.1761 118.095 18.9166 117.001 17.3528 116.512C15.4365 120.422 13.8699 124.232 12.7627 127.342C11.7878 129.52 10.9543 132.174 10.2951 135.068L16.2528 136.808L15.0363 140.181L9.59048 138.636C8.23081 146.685 8.17629 155.752 10.0285 161.496C11.0164 164.56 12.5469 166.679 14.7111 167.193C29.0177 170.596 40.6128 147.642 44.622 135.74Z" fill="#0598E2"/>
<path d="M50.071 90.171C57.2421 95.4034 60.1202 115.769 51.5544 139.765C44.7018 158.962 34.7691 169.765 28.4387 173.267C25.5268 174.877 21.5417 175.919 18.0209 175.009L27.6193 179.658C32.6835 179.915 46.6285 172.07 57.5287 142.1C68.2582 112.598 60.9545 96.0101 55.8572 90.9128L50.071 90.171Z" fill="#00699E"/>
<path d="M15.527 140.638L23.4202 115.772L8.99879 145.683L15.527 140.638Z" fill="black" fill-opacity="0.2"/>
<path opacity="0.3" d="M141.223 137C140.723 151 139.723 163 139.223 171.5C118.349 177.241 117.313 134.554 113.66 120.464C110.007 106.374 120.783 106.828 143.223 99.0002C142.223 113 141.723 123 141.223 137Z" fill="#00547F"/>
<path d="M143.587 177.847L124.346 111.016C118.594 112.88 117.941 115.915 117.999 116.782C121.847 132.432 129.161 164.452 130.3 170.667C131.438 176.883 139.716 178.433 143.587 177.847Z" fill="#00699E"/>
<path d="M124.346 111.016L143.587 177.847C147.847 177.177 158.291 175.67 171.211 170.935C184.131 166.201 191.844 159.899 194.933 156.055C195.535 155.306 194.753 152.647 193.103 148.85C186.279 133.144 164.612 97.9673 164.612 97.9673L124.346 111.016Z" fill="#068CD0"/>
<circle cx="141.994" cy="121.449" r="6.14467" transform="rotate(-34.6643 141.994 121.449)" fill="#1A9DE0"/>
<circle cx="161.31" cy="112.608" r="5.12056" transform="rotate(-31.3608 161.31 112.608)" fill="#1A9DE0"/>
<path d="M166.664 135.52C154.526 144.95 144.771 135.567 138.642 125.51C138.419 124.88 138.245 124.293 138.114 123.749C138.716 127.365 140.459 132.514 147.783 137.644C155.108 142.774 163.625 138.608 166.664 135.52Z" fill="#00699E"/>
<path d="M160.415 129.236C166.499 125.049 162.298 117.893 158.733 114.669C159.816 116.445 162.244 119.956 162.608 122.612C162.973 125.268 161.241 128.37 160.415 129.236Z" fill="#00699E"/>
<path fill-rule="evenodd" clip-rule="evenodd" d="M158.756 130.067C159.309 129.889 159.863 129.616 160.415 129.236C166.499 125.049 162.298 117.893 158.733 114.669C158.733 114.669 157.134 112.045 159.491 110.009C161.848 107.973 164.588 110.501 164.588 110.501C169.986 116.406 173.953 129.856 166.664 135.52C154.526 144.95 144.771 135.567 138.642 125.51C138.419 124.88 138.245 124.293 138.114 123.749C137.648 121.81 137.73 119.185 139.916 117.852C140.952 117.221 141.971 117.004 142.903 117.231C145.287 122.982 151.794 133.599 158.756 130.067Z" fill="#A5D4EE"/>
<path d="M145.596 119.678C144.869 118.286 143.939 117.484 142.903 117.231C145.287 122.982 151.794 133.599 158.756 130.067C153.215 131.855 147.783 124.161 145.596 119.678Z" fill="#B3E3FE"/>
</svg>
