<svg width="233" height="235" viewBox="0 0 233 235" fill="none" xmlns="http://www.w3.org/2000/svg">
<circle cx="117" cy="122.5" r="95" fill="#E4F6FF"/>
<path d="M24.3558 104.846L45.5831 53.8999C41.095 52.2017 39.1847 53.7582 38.7906 54.3243C33.4128 65.9287 22.0629 89.3925 19.6854 93.8079C17.3079 98.2232 21.667 103.289 24.3558 104.846Z" fill="#00699E"/>
<path d="M45.5831 53.8999L24.3558 104.846C27.3277 106.544 34.5451 110.79 44.8977 114.265C55.2503 117.74 63.1535 117.661 66.9744 116.812C70.7954 115.963 77 65.7874 77 65.7874L45.5831 53.8999Z" fill="#068CD0"/>
<circle cx="51.3421" cy="69.1171" r="4.87639" transform="rotate(4.01618 51.3421 69.1171)" fill="#1A9DE0"/>
<circle cx="67.6934" cy="73.2201" r="4.06366" transform="rotate(7.31968 67.6934 73.2201)" fill="#1A9DE0"/>
<path d="M59.6466 90.069C47.4501 89.8909 46.0604 79.2401 47.2512 69.9699C47.4258 69.4688 47.6086 69.0188 47.7978 68.6163C46.3772 71.1557 44.903 75.2098 46.8962 82.0207C48.8894 88.8317 56.2327 90.4752 59.6466 90.069Z" fill="#00699E"/>
<path d="M58.8925 83.0769C64.7378 83.5 65.6842 76.9837 65.0753 73.2182C64.865 74.8553 64.6277 78.2348 63.5361 80.0611C62.4444 81.8875 59.8334 82.9498 58.8925 83.0769Z" fill="#00699E"/>
<path fill-rule="evenodd" clip-rule="evenodd" d="M57.4524 82.7691C57.8834 82.9328 58.362 83.0385 58.8925 83.0769C64.7378 83.5 65.6842 76.9837 65.0753 73.2182C65.0753 73.2182 65.386 70.7998 67.8561 70.7074C70.3262 70.615 70.7699 73.54 70.7699 73.54C71.1852 79.8755 66.9717 90.1759 59.6466 90.069C47.4501 89.8909 46.0604 79.2401 47.2512 69.9699C47.4258 69.4688 47.6086 69.0188 47.7978 68.6163C48.4708 67.1843 49.8237 65.5989 51.839 65.8578C52.7936 65.9804 53.5326 66.3511 53.9975 66.9544C52.622 71.6988 51.3874 81.5039 57.4524 82.7691Z" fill="#A5D4EE"/>
<path d="M54.4516 69.8056C54.6921 68.5823 54.514 67.6248 53.9975 66.9544C52.622 71.6988 51.3874 81.5039 57.4524 82.7691C53.1328 81.1288 53.583 73.6677 54.4516 69.8056Z" fill="#8BD0F6"/>
<path d="M145.142 202.712C149.726 202.712 153.437 198.107 153.437 191.918C153.437 185.729 149.726 180.3 145.142 180.3C140.557 180.3 136.841 185.317 136.841 191.506C136.841 197.695 140.557 202.712 145.142 202.712Z" fill="#575757"/>
<path d="M145.142 202.712C140.557 202.712 136.841 197.695 136.841 191.506C136.841 185.317 140.557 180.3 145.142 180.3C145.142 180.3 138.857 180.3 137.265 181.099C135.672 181.899 130.615 184.865 131.86 194.411C133.105 203.957 140.715 203.404 145.142 202.712Z" fill="#7F7F7F"/>
<path d="M93.9669 228.3C98.5514 228.3 102.262 223.694 102.262 217.505C102.262 211.316 98.5514 205.887 93.9669 205.887C89.3825 205.887 85.666 210.904 85.666 217.093C85.666 223.282 89.3825 228.3 93.9669 228.3Z" fill="#575757"/>
<path d="M93.9669 228.3C89.3825 228.3 85.666 223.282 85.666 217.093C85.666 210.904 89.3825 205.887 93.9669 205.887C93.9669 205.887 87.6826 205.887 86.0898 206.687C84.497 207.486 79.4403 210.453 80.6855 219.999C81.9306 229.545 89.5398 228.991 93.9669 228.3Z" fill="#7F7F7F"/>
<path d="M138.063 192.294C137.625 192.877 129.96 196.645 120.07 201.342C120.515 201.393 121.079 201.529 121.737 201.687C123.843 202.192 126.908 202.927 130.065 201.889C133.194 200.86 138.746 198.844 141.481 197.851C141.542 197.829 141.602 197.808 141.66 197.787C146.924 194.813 150.539 192.357 150.855 191.094C151.02 190.436 151.003 188.382 150.855 185.321L138.063 192.294Z" fill="#005E8E"/>
<path fill-rule="evenodd" clip-rule="evenodd" d="M201.685 153.913L189.939 165.107C189.945 167.48 189.978 168.932 190.036 169.105C190.347 170.041 192.361 169.517 193.422 169.241C193.722 169.163 193.946 169.105 194.034 169.105C194.433 169.105 194.098 183.304 192.834 187.096C190.835 193.093 137.262 216.077 132.864 217.082C130.375 217.65 115.871 217.247 102.879 216.725C97.5031 216.509 92.3861 216.273 88.4859 216.077C86.782 216.861 85.173 217.601 83.6898 218.281C83.6898 218.281 82.8265 218.629 82.4904 219.081C82.1061 219.597 82.0575 220.037 82.0906 220.68C82.1487 221.804 82.5656 222.998 83.6883 223.079C100.48 224.278 122.87 225.477 130.866 225.078C138.862 224.678 146.859 221.479 173.245 208.286C198.483 195.667 199.696 192.978 201.393 189.217C201.47 189.046 201.548 188.872 201.63 188.696C202.717 186.34 202.326 171.013 201.685 153.913Z" fill="#068CD0"/>
<path d="M226.019 84.7471C226.819 82.7481 225.619 79.5497 223.62 79.1499C223.42 79.1098 222.72 79.0777 221.62 79.0537C218.82 80.5778 212.759 83.9216 209.226 85.9466C208.05 86.6203 207.866 86.7467 207.227 87.146C204.029 89.145 195.233 95.5418 192.834 100.339C190.781 104.446 189.899 151.016 189.939 165.107L201.685 153.913C200.912 133.277 199.774 110.059 200.43 103.938C200.929 99.2847 225.22 86.7462 226.019 84.7471Z" fill="#0076B1"/>
<path fill-rule="evenodd" clip-rule="evenodd" d="M88.4859 216.077C97.8552 211.762 110.095 206.079 120.07 201.342C120.515 201.393 121.079 201.529 121.737 201.687C123.843 202.192 126.908 202.927 130.065 201.889C133.194 200.86 138.746 198.844 141.481 197.851L141.66 197.787C130.927 203.849 113.34 212.066 102.879 216.725C97.5031 216.509 92.3861 216.273 88.4859 216.077Z" fill="#00699E"/>
<path d="M166.449 80.3493C162.851 81.5487 138.063 95.9416 136.464 101.139C135.595 103.964 136.497 130.172 137.309 153.768C137.992 173.587 138.61 191.564 138.063 192.294L150.855 185.321C150.412 176.197 148.795 158.117 147.291 141.299L147.291 141.298C145.624 122.659 144.096 105.569 144.458 103.938C145.258 100.339 163.249 88.7452 167.247 87.146C170.188 85.9695 192.285 85.957 205.873 85.9492C207.062 85.9486 208.186 85.9479 209.226 85.9466C212.759 83.9216 218.82 80.5778 221.62 79.0537C211.755 78.8384 169.686 79.2703 166.449 80.3493Z" fill="#005D8C"/>
<path d="M71.5 137.921C78.1211 137.829 88.6023 137.452 95.6828 137.354C101.876 137.268 107.757 137.187 112.474 137.121L179.5 109.135L136.063 110L71.5 137.921Z" fill="#005F8F"/>
<path d="M136.063 103.938L53.5 139C53.6513 139 60.3519 138.075 71.5 137.921L136.063 110L179.5 109.135L192.834 103.138L136.063 103.938Z" fill="#068CD0"/>
<path d="M196.832 105.137C195.873 103.538 193.767 103.138 192.834 103.138L179.5 109.135L112.474 137.121C107.757 137.187 101.876 137.268 95.6828 137.354C88.6023 137.452 78.1211 137.829 71.5 137.921C60.3519 138.075 53.6513 139 53.5 139C53.5 139 51.6314 139.094 50.9048 140.72C50.0666 142.594 51.7044 145.917 51.7044 145.917L54.503 145.846L114.473 144.318L192.834 110.843L196.832 109.135C197.232 108.469 197.792 106.736 196.832 105.137Z" fill="#A5D4EE"/>
<path d="M114.473 144.318L54.503 145.846C59.1674 160.396 70.0954 190.455 76.4923 194.293C84.4883 199.091 122.07 200.29 128.866 199.89L114.473 144.318Z" fill="#00699E"/>
<path fill-rule="evenodd" clip-rule="evenodd" d="M114.473 144.318L192.834 110.843C192.717 112.965 192.605 115.523 192.482 118.326C191.904 131.493 194.034 145.357 188.437 154.313C178.066 170.906 160.814 180.911 144.82 190.187C139.233 193.427 133.8 196.578 128.866 199.89L114.473 144.318Z" fill="#068CD0"/>
<path d="M128.866 199.89C135.663 199.49 195.233 169.505 196.832 166.307C198.112 163.748 197.366 127.126 196.832 109.135L192.834 110.843C192.717 112.965 192.605 115.523 192.482 118.326C191.904 131.493 194.034 145.357 188.437 154.313C178.066 170.906 160.814 180.911 144.82 190.187C139.233 193.427 133.8 196.578 128.866 199.89Z" fill="#077EBB"/>
<path d="M81.1353 152.663C76.6711 152.725 71.584 152.712 68.2227 152.693C66.3529 152.682 65.0042 154.451 65.5137 156.25C65.8586 157.468 66.9731 158.306 68.2389 158.3L104.198 158.13C106.103 158.121 107.479 156.307 106.974 154.47C106.625 153.2 105.464 152.326 104.146 152.345C97.5194 152.437 88.5169 152.561 81.1353 152.663Z" fill="#A5D4EE"/>
<path d="M152.341 230.287C156.925 230.287 160.636 225.681 160.636 219.492C160.636 213.303 156.925 207.874 152.341 207.874C147.756 207.874 144.04 212.892 144.04 219.081C144.04 225.27 147.756 230.287 152.341 230.287Z" fill="#575757"/>
<path d="M152.341 230.287C147.756 230.287 144.04 225.27 144.04 219.081C144.04 212.892 147.756 207.874 152.341 207.874C152.341 207.874 146.057 207.874 144.464 208.674C142.871 209.474 137.814 212.44 139.059 221.986C140.305 231.532 147.914 230.979 152.341 230.287Z" fill="#7F7F7F"/>
<path d="M205.911 200.313C210.496 200.313 214.207 195.708 214.207 189.519C214.207 183.33 210.496 177.901 205.911 177.901C201.327 177.901 197.61 182.918 197.61 189.107C197.61 195.296 201.327 200.313 205.911 200.313Z" fill="#575757"/>
<path d="M205.911 200.313C201.327 200.313 197.61 195.296 197.61 189.107C197.61 182.918 201.327 177.901 205.911 177.901C205.911 177.901 199.627 177.901 198.034 178.7C196.441 179.5 191.385 182.466 192.63 192.012C193.875 201.558 201.484 201.005 205.911 200.313Z" fill="#7F7F7F"/>
<path d="M134.823 59.4474C131.809 58.2339 123.527 57.7312 113.925 64.896C101.278 75.0095 105.355 81.3777 107.551 83.1883C107.68 80.5938 109.793 74.1667 117.215 69.2142C129.051 61.3167 135.034 63.0849 138.235 63.7413C137.915 61.7999 136.81 60.247 134.823 59.4474Z" fill="#00699E"/>
<path fill-rule="evenodd" clip-rule="evenodd" d="M135.705 58.4479C127.452 54.9435 117.113 60.5765 112.975 63.8311C107.756 68.0469 101.606 75.4542 104.45 81.6025C104.771 82.1111 105.167 82.7388 105.588 83.4101C105.899 83.7936 106.253 84.1697 106.653 84.5373C113.232 89.9274 127.947 82.8564 133.929 77.0673C138.564 72.5815 141.509 65.5395 138.676 60.9541L138.66 60.9287C138.043 59.9412 137.086 59.092 135.705 58.4479ZM129.192 78.8463C118.296 86.6799 109.747 84.9988 107.551 83.1883C105.355 81.3777 101.278 75.0095 113.925 64.896C123.527 57.7312 131.809 58.2339 134.823 59.4474C136.81 60.247 137.915 61.7999 138.235 63.7413C138.971 68.1992 135.623 74.2224 129.192 78.8463Z" fill="#76C5F0"/>
<path d="M133.929 77.0673C127.947 82.8564 113.232 89.9274 106.653 84.5373C106.253 84.1697 105.899 83.7936 105.588 83.4101C106.927 85.5448 108.726 88.5585 110.862 90.0507C112.999 91.5428 121.465 93.3955 132.628 85.6837C143.791 77.9719 144.148 70.7515 142.895 67.7417L138.676 60.9541C141.509 65.5395 138.564 72.5815 133.929 77.0673Z" fill="#068CD0"/>
<path d="M107.551 83.1883C109.747 84.9988 118.296 86.6799 129.192 78.8463C135.623 74.2224 138.971 68.1992 138.235 63.7413M107.551 83.1883C105.355 81.3777 101.278 75.0095 113.925 64.896C123.527 57.7312 131.809 58.2339 134.823 59.4474C136.81 60.247 137.915 61.7999 138.235 63.7413M107.551 83.1883C107.68 80.5938 109.793 74.1667 117.215 69.2142C129.051 61.3167 135.034 63.0849 138.235 63.7413M138.66 60.9287C138.043 59.9412 137.086 59.0919 135.705 58.4479C127.452 54.9435 117.113 60.5765 112.975 63.8311C107.756 68.0469 101.606 75.4542 104.45 81.6025M138.66 60.9287L138.676 60.9541M138.66 60.9287C138.665 60.9372 138.671 60.9456 138.676 60.9541M104.45 81.6025C104.771 82.1111 105.167 82.7388 105.588 83.4101M104.45 81.6025C104.736 82.2192 105.112 82.8232 105.588 83.4101M105.588 83.4101C105.899 83.7936 106.253 84.1697 106.653 84.5373C113.232 89.9274 127.947 82.8564 133.929 77.0673C138.564 72.5815 141.509 65.5395 138.676 60.9541M105.588 83.4101C106.927 85.5448 108.726 88.5585 110.862 90.0507C112.999 91.5428 121.465 93.3955 132.628 85.6837C143.791 77.9719 144.148 70.7515 142.895 67.7417L138.676 60.9541" stroke="#068CD0" stroke-width="0.0848908"/>
<circle cx="193.337" cy="34.4075" r="29.5925" fill="#068CD0"/>
<path d="M205.706 29.1995L191.649 43.2559C191.146 43.759 190.495 43.9957 189.815 43.9957C189.164 43.9957 188.513 43.759 188.01 43.2559L180.967 36.2425C179.96 35.2068 179.96 33.5792 180.967 32.573C181.973 31.5669 183.63 31.5669 184.636 32.573L189.815 37.7517L202.036 25.53C203.043 24.5239 204.7 24.5239 205.706 25.53C206.712 26.5657 206.712 28.1933 205.706 29.1995Z" fill="#E4F6FF"/>
<path d="M105.717 39.0795C104.858 37.0038 101.099 32.6699 92.9154 31.3943C81.8022 30.0415 80.6296 35.136 80.7979 37.0965C82.1415 35.9049 86.338 33.839 92.3747 35.1085C102.001 37.133 104.022 40.9432 105.247 42.8418C106.051 41.7443 106.283 40.4472 105.717 39.0795Z" fill="#00699E"/>
<path fill-rule="evenodd" clip-rule="evenodd" d="M106.638 39.0314C104.375 33.26 96.5912 30.8791 92.9819 30.4101C88.3748 29.8721 81.741 30.4183 80.0808 34.7979C79.985 35.2024 79.8662 35.7013 79.7384 36.2342C79.6996 36.5734 79.6852 36.9303 79.6971 37.3056C80.2182 43.1627 90.8295 47.0089 96.5826 47.1624C101.041 47.2813 105.943 45.3286 106.837 41.711L106.842 41.6909C107.031 40.9081 106.987 40.0247 106.638 39.0314ZM93.4119 45.6834C84.2716 44.092 80.9661 39.0569 80.7979 37.0965C80.6296 35.136 81.8022 30.0415 92.9154 31.3943C101.099 32.6699 104.858 37.0038 105.717 39.0795C106.283 40.4472 106.051 41.7443 105.247 42.8418C103.401 45.3618 98.8072 46.6227 93.4119 45.6834Z" fill="#76C5F0"/>
<path d="M96.5826 47.1624C90.8295 47.0089 80.2182 43.1627 79.6971 37.3056C79.6852 36.9303 79.6996 36.5734 79.7384 36.2342C79.3322 37.9284 78.7138 40.2746 79.0107 42.0518C79.3075 43.829 82.4881 48.9061 91.6975 50.6882C100.907 52.4703 104.646 49.1535 105.526 47.0784L106.837 41.711C105.943 45.3286 101.041 47.2813 96.5826 47.1624Z" fill="#068CD0"/>
<path d="M80.7979 37.0965C80.9661 39.0569 84.2716 44.092 93.4119 45.6834C98.8072 46.6227 103.401 45.3618 105.247 42.8418M80.7979 37.0965C80.6296 35.136 81.8022 30.0415 92.9154 31.3943C101.099 32.6699 104.858 37.0038 105.717 39.0795C106.283 40.4472 106.051 41.7443 105.247 42.8418M80.7979 37.0965C82.1415 35.9049 86.338 33.839 92.3747 35.1085C102.001 37.133 104.022 40.9432 105.247 42.8418M106.842 41.6909C107.031 40.9081 106.987 40.0247 106.638 39.0314C104.375 33.26 96.5912 30.8791 92.9819 30.4101C88.3748 29.8721 81.741 30.4183 80.0808 34.7979M106.842 41.6909L106.837 41.711M106.842 41.6909C106.84 41.6976 106.839 41.7043 106.837 41.711M80.0808 34.7979C79.985 35.2024 79.8662 35.7013 79.7384 36.2342M80.0808 34.7979C79.9143 35.2371 79.7978 35.715 79.7384 36.2342M79.7384 36.2342C79.6996 36.5734 79.6852 36.9303 79.6971 37.3056C80.2182 43.1627 90.8295 47.0089 96.5826 47.1624C101.041 47.2813 105.943 45.3286 106.837 41.711M79.7384 36.2342C79.3322 37.9284 78.7138 40.2746 79.0107 42.0518C79.3075 43.829 82.4881 48.9061 91.6975 50.6882C100.907 52.4703 104.646 49.1535 105.526 47.0784L106.837 41.711" stroke="#068CD0" stroke-width="0.05869"/>
<path d="M18 114C18 114 19.3799 121.876 22.7518 125.248C26.1237 128.62 34 130 34 130C34 130 26.1237 131.38 22.7518 134.752C19.3799 138.124 18 146 18 146C18 146 16.6201 138.124 13.2482 134.752C9.87634 131.38 2 130 2 130C2 130 9.87634 128.62 13.2482 125.248C16.6201 121.876 18 114 18 114Z" fill="#068CD0"/>
<path d="M34 141C34 141 34.6899 144.938 36.3759 146.624C38.0618 148.31 42 149 42 149C42 149 38.0618 149.69 36.3759 151.376C34.6899 153.062 34 157 34 157C34 157 33.3101 153.062 31.6241 151.376C29.9382 149.69 26 149 26 149C26 149 29.9382 148.31 31.6241 146.624C33.3101 144.938 34 141 34 141Z" fill="#068CD0"/>
</svg>
