<svg width="229" height="45" viewBox="0 0 229 45" fill="none" xmlns="http://www.w3.org/2000/svg">
<path d="M26.9368 0.545819C27.5218 0.208065 28.2426 0.208065 28.8276 0.545819L46.2518 10.6057C46.8369 10.9435 47.1972 11.5677 47.1972 12.2432V32.363C47.1972 33.0385 46.8369 33.6627 46.2518 34.0005L28.8276 44.0604C28.2426 44.3981 27.5218 44.3981 26.9368 44.0604L9.51254 34.0005C8.92753 33.6627 8.56715 33.0385 8.56715 32.363V12.2432C8.56715 11.5677 8.92753 10.9435 9.51254 10.6057L26.9368 0.545819Z" fill="url(#paint0_linear_3164_18341)"/>
<path fill-rule="evenodd" clip-rule="evenodd" d="M27.8813 3.27216L12.3455 12.2417C11.7605 12.5795 11.4001 13.2037 11.4001 13.8792V30.7267C11.4001 31.4023 11.7605 32.0265 12.3455 32.3642L26.9359 40.788C27.5209 41.1257 28.2417 41.1257 28.8267 40.788L44.3625 31.8184C44.3625 18.3562 34.8852 8.4676 27.8813 3.27216Z" fill="#76C5F0"/>
<path d="M44.3625 13.8792C44.3625 13.2037 44.0021 12.5795 43.4171 12.2417L27.8813 3.27216C34.8852 8.4676 44.3625 18.3562 44.3625 31.8184V13.8792Z" fill="#99D5F6"/>
<g filter="url(#filter0_d_3164_18341)">
<path d="M51.2278 21.9431L48.8198 23.1435C48.7699 23.1685 48.7111 23.1322 48.7111 23.0765V23.075L48.7111 19.3998C48.7111 19.3493 48.6621 19.3132 48.6138 19.3282L46.7421 19.9055C46.6937 19.9204 46.6447 19.8843 46.6448 19.8338L46.647 17.2946C46.647 17.2601 46.6707 17.2301 46.7043 17.2219L51.3111 16.0967C51.3591 16.085 51.4052 16.122 51.4041 16.1713L51.2694 21.8777C51.2687 21.9055 51.2527 21.9306 51.2278 21.9431Z" fill="url(#paint1_linear_3164_18341)"/>
<path d="M41.7134 20.2169C42.4834 23.3178 45.2347 24.0137 47.6921 23.4059C48.0416 23.3195 48.3828 23.2072 48.7111 23.075L48.7111 20.3527C48.7111 20.3008 48.6596 20.2643 48.61 20.2802C48.3209 20.3727 47.8843 20.4774 47.6058 20.5423C47.5135 20.5638 47.4324 20.5827 47.3696 20.5982C47.3367 20.6064 47.3038 20.6139 47.2708 20.6207C47.2088 20.6336 47.1469 20.6441 47.0852 20.6522C46.1533 20.775 45.2703 20.3543 44.9938 19.241C44.9392 19.021 44.9073 18.8016 44.8979 18.5857C44.8392 17.2385 45.655 16.0254 47.2739 15.625C48.1227 15.4151 49.0305 15.556 49.7178 15.9126C49.754 15.9313 49.7988 15.9191 49.8194 15.884L51.2856 13.3804C51.3049 13.3476 51.2968 13.3057 51.2657 13.2836C50.3637 12.643 48.6025 12.2593 46.7752 12.7113C43.2553 13.5819 41.3774 16.255 41.5417 19.0926C41.5633 19.4658 41.6202 19.8418 41.7134 20.2169Z" fill="url(#paint2_linear_3164_18341)"/>
<path fill-rule="evenodd" clip-rule="evenodd" d="M14.7885 20.4577C14.7466 20.4681 14.7221 20.5115 14.7348 20.5526L17.723 30.2064C17.7348 30.2444 17.7742 30.2666 17.8129 30.257L20.5845 29.5715C20.6098 29.5652 20.63 29.5464 20.638 29.5217L22.4508 23.923C22.4553 23.9092 22.4556 23.8944 22.4518 23.8803L21.1562 19.1198C21.1364 19.0473 21.0339 19.0456 21.0118 19.1175L19.4798 24.0971C19.4577 24.1688 19.3555 24.1674 19.3355 24.0951L18.1204 19.7088C18.1096 19.6696 18.0695 19.6462 18.0299 19.656L14.7885 20.4577Z" fill="url(#paint3_linear_3164_18341)"/>
<path d="M23.8873 18.0807C23.8752 18.0432 23.836 18.0214 23.7977 18.0309L21.0875 18.7012C21.0466 18.7114 21.022 18.7531 21.0331 18.7937L22.3825 23.7519L24.002 28.487C24.0146 28.5238 24.0534 28.5449 24.0912 28.5356L26.8639 27.8498C26.8897 27.8434 26.9101 27.824 26.9178 27.7986L30.3033 16.5684C30.3201 16.5127 30.2698 16.46 30.2132 16.474L26.9096 17.2911C26.8833 17.2976 26.8625 17.3178 26.8553 17.3439L25.4407 22.4557C25.4209 22.5275 25.3196 22.5296 25.2968 22.4587L23.8873 18.0807Z" fill="url(#paint4_linear_3164_18341)"/>
<path d="M9.49492 32.0216C7.53178 32.5071 5.64785 32.2251 4.17786 31.4367L5.51033 28.7134C6.87471 29.3783 8.14483 29.5429 9.18995 29.2844C9.61365 29.1796 9.87173 28.9512 9.80173 28.6693C9.72606 28.3646 9.52379 28.3079 8.02364 28.1358C7.99718 28.1328 7.97031 28.1297 7.94304 28.1266C5.939 27.9042 4.91647 27.4689 4.55594 26.0171C4.0834 24.1143 5.44966 22.1307 8.14721 21.4635C9.91262 21.0268 11.6203 21.2029 12.9212 21.8535L11.5887 24.5768C10.6897 24.1559 9.50792 23.9246 8.4628 24.1831C8.0391 24.2879 7.77051 24.474 7.84052 24.7559C7.89947 24.9933 8.05639 25.0428 8.88778 25.1401C9.0931 25.1641 9.33956 25.1911 9.63584 25.2244C11.4705 25.4289 12.7189 25.8682 13.0934 27.3764C13.587 29.3638 12.3337 31.3194 9.49492 32.0216Z" fill="url(#paint5_linear_3164_18341)"/>
<path d="M29.527 27.2159L33.831 15.7585C33.8397 15.7353 33.8592 15.718 33.8833 15.712L37.0587 14.9266C37.0948 14.9177 37.132 14.9364 37.1462 14.9707L41.0529 24.3973C41.0704 24.4397 41.0461 24.4877 41.0015 24.4987L37.6338 25.3317C37.597 25.3408 37.5593 25.3212 37.5456 25.2861L37.095 24.1262C37.0813 24.091 37.0435 24.0714 37.0068 24.0805L33.6504 24.9106C33.6257 24.9168 33.6058 24.9349 33.5975 24.9589L33.0917 26.42C33.0834 26.444 33.0634 26.4622 33.0387 26.4683L29.6154 27.315C29.5567 27.3295 29.5058 27.2724 29.527 27.2159Z" fill="url(#paint6_linear_3164_18341)"/>
<path d="M52.1703 14.838L52.58 14.1385C52.9749 13.4642 52.8266 12.5524 52.1343 12.0607C50.8145 11.1233 48.5869 10.718 46.4151 11.2552C42.6929 12.1758 40.3461 14.9037 40.0609 18.0859L38.5319 14.3964C38.2331 13.6754 37.4528 13.2839 36.6985 13.4705L33.5231 14.2559C33.0203 14.3803 32.6096 14.7443 32.4268 15.231L31.6487 17.3023L31.7394 17.0013C32.0935 15.8268 31.0321 14.7262 29.8531 15.0179L26.5495 15.835C25.9982 15.9713 25.5617 16.3944 25.4096 16.9439L25.2616 17.4786C24.9593 16.7774 24.1895 16.3888 23.4375 16.5748L20.7273 17.2451C19.9911 17.4272 19.5044 18.1003 19.531 18.8297L19.4657 19.0418C19.1471 18.3824 18.4019 18.0188 17.6698 18.1999L14.4284 19.0016C13.7711 19.1642 13.3151 19.7167 13.2414 20.3488C11.6412 19.658 9.70609 19.5327 7.78705 20.0073C4.59192 20.7976 2.35927 23.3952 3.10016 26.3786C3.2803 27.104 3.60039 27.7226 4.08368 28.2162L2.83049 30.7774C2.47595 31.502 2.75799 32.3773 3.4689 32.7586C5.27588 33.7277 7.54189 34.0498 9.85508 33.4777C11.532 33.0629 12.8927 32.239 13.7524 31.0693C14.6262 29.8805 14.9021 28.4358 14.5492 27.0148C14.3138 26.0669 13.8234 25.3416 13.1383 24.8228L13.964 23.1352L16.2901 30.6499C16.5375 31.4493 17.3649 31.913 18.173 31.7131L20.9447 31.0276C21.4725 30.8971 21.8969 30.5031 22.065 29.9838L22.485 28.6867L22.5827 28.9724C22.8477 29.7473 23.6605 30.1873 24.4514 29.9917L27.2241 29.3059C27.7628 29.1726 28.1931 28.7652 28.3539 28.2315L28.3588 28.2155C28.7197 28.6723 29.3269 28.9316 29.9756 28.7711L33.3989 27.9244C33.9157 27.7966 34.3342 27.4158 34.5091 26.9107L33.0917 26.42L34.5091 26.9107L34.7618 26.181L36.1506 25.8374C36.4408 26.5724 37.2296 26.9769 37.9939 26.7878L41.3617 25.9549C42.2227 25.7419 42.7267 24.8671 42.5087 24.0316C42.8066 24.2431 43.1249 24.4235 43.4601 24.5726C44.9328 25.228 46.5918 25.2233 48.0523 24.862C48.2955 24.8019 48.5341 24.7317 48.7671 24.653C49.0066 24.6562 49.2528 24.6038 49.4891 24.486L51.8971 23.2855C52.4187 23.0254 52.7552 22.4978 52.769 21.9131L52.9037 16.2067C52.9175 15.6208 52.6158 15.1199 52.1703 14.838Z" stroke="url(#paint7_linear_3164_18341)" stroke-width="3" stroke-linejoin="round"/>
</g>
<path fill-rule="evenodd" clip-rule="evenodd" d="M47.6779 23.4224C45.2225 24.031 42.4735 23.3342 41.7041 20.2297C41.611 19.8541 41.5541 19.4776 41.5325 19.104C41.3683 16.263 43.2448 13.5868 46.7618 12.7151C48.6012 12.2593 50.3735 12.6525 51.2685 13.3025C51.288 13.3166 51.2931 13.3431 51.2809 13.3639L49.7899 15.9147C49.7769 15.937 49.7486 15.9448 49.7258 15.9327C49.0363 15.5666 48.118 15.4197 47.2601 15.6323C45.6425 16.0332 44.8273 17.2477 44.886 18.5965C44.8954 18.8127 44.9273 19.0323 44.9819 19.2525C45.2861 20.4803 46.3256 20.8667 47.3557 20.6114C47.4184 20.5959 47.4995 20.5769 47.5917 20.5554C47.9197 20.4788 48.3878 20.3694 48.6622 20.2652C48.6938 20.2532 48.7284 20.2757 48.7291 20.3095L48.7809 23.0237C48.7813 23.0432 48.7697 23.061 48.7517 23.0684C48.4066 23.2107 48.0469 23.331 47.6779 23.4224Z" fill="white"/>
<path fill-rule="evenodd" clip-rule="evenodd" d="M47.6779 23.4224C45.2225 24.031 42.4735 23.3342 41.7041 20.2297C41.611 19.8541 41.5541 19.4776 41.5325 19.104C41.3683 16.263 43.2448 13.5868 46.7618 12.7151C48.6012 12.2593 50.3735 12.6525 51.2685 13.3025C51.288 13.3166 51.2931 13.3431 51.2809 13.3639L49.7899 15.9147C49.7769 15.937 49.7486 15.9448 49.7258 15.9327C49.0363 15.5666 48.118 15.4197 47.2601 15.6323C45.6425 16.0332 44.8273 17.2477 44.886 18.5965C44.8954 18.8127 44.9273 19.0323 44.9819 19.2525C45.2861 20.4803 46.3256 20.8667 47.3557 20.6114C47.4184 20.5959 47.4995 20.5769 47.5917 20.5554C47.9197 20.4788 48.3878 20.3694 48.6622 20.2652C48.6938 20.2532 48.7284 20.2757 48.7291 20.3095L48.7809 23.0237C48.7813 23.0432 48.7697 23.061 48.7517 23.0684C48.4066 23.2107 48.0469 23.331 47.6779 23.4224Z" fill="white"/>
<path d="M48.7747 20.211L48.8498 23.1016H48.5495L47.0608 20.6325C46.9874 20.6074 47.0104 20.5489 47.0104 20.5489L47.0608 20.6325C47.1035 20.6471 47.1789 20.6503 47.3107 20.6239C48.5494 20.3612 48.7747 20.211 48.7747 20.211Z" fill="url(#paint8_linear_3164_18341)" fill-opacity="0.2"/>
<path d="M51.2262 21.9497L48.7655 23.179C48.7339 23.1947 48.6967 23.1718 48.6967 23.1364L48.6967 19.3735C48.6967 19.3415 48.6657 19.3186 48.6351 19.3281L46.6936 19.9282C46.663 19.9377 46.632 19.9148 46.632 19.8828L46.6343 17.2816C46.6343 17.2597 46.6493 17.2407 46.6705 17.2355L51.3295 16.0953C51.3599 16.0879 51.3891 16.1113 51.3883 16.1426L51.2525 21.9083C51.2521 21.9259 51.242 21.9418 51.2262 21.9497Z" fill="white"/>
<path fill-rule="evenodd" clip-rule="evenodd" d="M29.5896 27.3843C29.5524 27.3935 29.5202 27.3573 29.5336 27.3215L33.8576 15.7879C33.8631 15.7732 33.8755 15.7622 33.8907 15.7584L37.1006 14.9629C37.1234 14.9572 37.1469 14.9691 37.1559 14.9909L41.0807 24.4801C41.0918 24.507 41.0764 24.5374 41.0482 24.5444L37.6286 25.3919C37.6054 25.3977 37.5815 25.3853 37.5729 25.363L37.105 24.1565C37.0964 24.1342 37.0725 24.1218 37.0493 24.1275L33.6576 24.9681C33.6419 24.972 33.6293 24.9835 33.6241 24.9987L33.1089 26.4898C33.1036 26.505 33.091 26.5165 33.0754 26.5204L29.5896 27.3843ZM36.3074 21.7705C36.3173 21.7971 36.3018 21.8263 36.2743 21.8331L34.6039 22.2471C34.5675 22.2562 34.5354 22.2213 34.5475 22.1857L35.4201 19.6147C35.4345 19.5724 35.4942 19.5715 35.5097 19.6135L36.3074 21.7705Z" fill="white"/>
<path d="M36.3519 21.8251L37.1027 24.1151L36.1267 24.3404L35.3008 22.0504L36.3519 21.8251Z" fill="url(#paint9_linear_3164_18341)" fill-opacity="0.2"/>
<path d="M35.4886 19.4973L33.8744 15.7808L33.3113 17.1698L34.7378 21.6371L35.4886 19.4973Z" fill="url(#paint10_linear_3164_18341)" fill-opacity="0.2"/>
<path fill-rule="evenodd" clip-rule="evenodd" d="M14.7609 20.4774C14.7344 20.484 14.7188 20.5115 14.7269 20.5376L17.7289 30.2555C17.7364 30.2796 17.7613 30.2937 17.7858 30.2876L20.5953 29.5913C20.6113 29.5874 20.624 29.5754 20.6291 29.5598L22.4477 23.9321C22.4505 23.9233 22.4507 23.9139 22.4483 23.905L21.0836 18.8805L19.4488 24.2045C19.4349 24.2499 19.3702 24.249 19.3576 24.2032L18.1112 19.6948C18.1043 19.6699 18.0789 19.6551 18.0539 19.6613L14.7609 20.4774Z" fill="white"/>
<path d="M23.8712 18.0662C23.8636 18.0424 23.8388 18.0286 23.8146 18.0346L21.0543 18.7187C21.0284 18.7251 21.0128 18.7515 21.0198 18.7773L22.3755 23.7685L24.0019 28.5332C24.0099 28.5566 24.0344 28.5699 24.0583 28.564L26.8685 27.8675C26.8848 27.8635 26.8978 27.8512 26.9026 27.8351L30.3038 16.5302C30.3144 16.4949 30.2826 16.4615 30.2468 16.4704L26.8833 17.304C26.8667 17.3081 26.8535 17.3209 26.8489 17.3375L25.4067 22.5598C25.3941 22.6053 25.3301 22.6066 25.3157 22.5617L23.8712 18.0662Z" fill="white"/>
<path d="M22.4454 23.9642L21.0564 18.9337L20.1599 21.922C20.157 21.9317 20.1573 21.9421 20.1607 21.9517L21.6946 26.2166L22.4454 23.9642Z" fill="url(#paint11_linear_3164_18341)" fill-opacity="0.2"/>
<path d="M9.51585 32.0483C7.5722 32.53 5.70626 32.2572 4.2434 31.4842C4.22083 31.4723 4.21198 31.4446 4.22318 31.4217L5.51366 28.7789C5.52518 28.7553 5.55381 28.7457 5.57746 28.757C6.92443 29.4053 8.17783 29.564 9.21113 29.3079C9.63448 29.203 9.89236 28.9743 9.82241 28.6921C9.7468 28.387 9.5447 28.3302 8.04577 28.158C8.01933 28.155 7.99249 28.1519 7.96523 28.1488C5.96283 27.9261 4.94113 27.4903 4.5809 26.0368C4.10875 24.1317 5.47389 22.1457 8.16924 21.4777C9.91424 21.0452 11.6028 21.2131 12.8973 21.8474C12.9207 21.8589 12.9301 21.8871 12.9187 21.9105L11.6285 24.5527C11.6171 24.5761 11.5892 24.586 11.5656 24.5751C10.6727 24.1662 9.51251 23.9458 8.48457 24.2005C8.06122 24.3055 7.79285 24.4918 7.8628 24.774C7.9217 25.0117 8.07849 25.0613 8.90921 25.1587C9.11436 25.1828 9.36062 25.2097 9.65665 25.2431C11.4898 25.4479 12.7372 25.8877 13.1114 27.3976C13.6046 29.3874 12.3523 31.3454 9.51585 32.0483Z" fill="white"/>
<path d="M8.544 28.2048L9.45333 25.2949C9.4621 25.2669 9.44357 25.2377 9.41447 25.2337L8.3814 25.0912L7.97188 24.9888C7.94851 24.983 7.92447 24.9955 7.91592 25.0181L6.82513 27.8905C6.81453 27.9184 6.832 27.949 6.86142 27.9542L8.49049 28.2375C8.51399 28.2416 8.53688 28.2276 8.544 28.2048Z" fill="url(#paint12_linear_3164_18341)" fill-opacity="0.2"/>
<path d="M43.4801 3.82794C43.4801 4.76899 42.7172 5.53186 41.7762 5.53186C40.8351 5.53186 40.0723 4.76899 40.0723 3.82794C40.0723 2.88689 40.8351 2.12402 41.7762 2.12402C42.7172 2.12402 43.4801 2.88689 43.4801 3.82794Z" fill="#0690D7"/>
<circle cx="37.0805" cy="1.46055" r="1.21709" fill="#0690D7"/>
<path d="M73.9449 29.4996C72.1379 29.4996 70.3112 28.9497 68.7792 27.8498C68.4453 27.6141 68.2096 27.1819 68.2096 26.7106C68.2096 25.9249 68.8381 25.316 69.6238 25.316C70.0166 25.316 70.2916 25.4535 70.488 25.591C71.529 26.357 72.6682 26.8284 74.0038 26.8284C75.2412 26.8284 75.9876 26.3374 75.9876 25.5321V25.4928C75.9876 24.7268 75.5162 24.3339 73.2182 23.7447C70.4487 23.0376 68.6613 22.2716 68.6613 19.5414V19.5021C68.6613 17.0077 70.6648 15.3578 73.4735 15.3578C75.143 15.3578 76.5965 15.7899 77.8339 16.5756C78.1678 16.772 78.5017 17.1845 78.5017 17.7737C78.5017 18.5594 77.8732 19.1682 77.0875 19.1682C76.7929 19.1682 76.5572 19.0897 76.3215 18.9522C75.3198 18.3629 74.377 18.029 73.4342 18.029C72.2754 18.029 71.6665 18.5594 71.6665 19.2272V19.2664C71.6665 20.17 72.2557 20.4646 74.6323 21.0735C77.4214 21.8002 78.9927 22.8019 78.9927 25.1982V25.2374C78.9927 27.9676 76.9108 29.4996 73.9449 29.4996ZM82.0106 27.948V16.988C82.0106 16.1435 82.6784 15.4757 83.523 15.4757H83.8569C84.5051 15.4757 84.9568 15.8096 85.2318 16.2613L88.8851 22.2127L92.5581 16.2417C92.8723 15.731 93.3044 15.4757 93.9133 15.4757H94.2472C95.0918 15.4757 95.7596 16.1435 95.7596 16.988V27.9087C95.7596 28.7533 95.0918 29.4211 94.2472 29.4211C93.4223 29.4211 92.7545 28.7336 92.7545 27.9087V21.0538L90.1029 25.1392C89.7886 25.6106 89.3958 25.9053 88.8458 25.9053C88.2959 25.9053 87.903 25.6106 87.5888 25.1392L84.9765 21.1127V27.948C84.9765 28.7729 84.3087 29.4211 83.4837 29.4211C82.6588 29.4211 82.0106 28.7729 82.0106 27.948ZM98.5126 28.0069C98.5126 27.7908 98.5912 27.5748 98.6894 27.3587L103.482 16.5363C103.816 15.7899 104.425 15.3382 105.25 15.3382H105.426C106.251 15.3382 106.841 15.7899 107.175 16.5363L111.967 27.3587C112.065 27.5748 112.124 27.7712 112.124 27.9676C112.124 28.7729 111.496 29.4211 110.69 29.4211C109.983 29.4211 109.512 29.0086 109.237 28.3801L108.314 26.2195H102.264L101.302 28.4783C101.046 29.0675 100.536 29.4211 99.9072 29.4211C99.1215 29.4211 98.5126 28.7925 98.5126 28.0069ZM103.384 23.5483H107.194L105.289 19.0111L103.384 23.5483ZM114.886 27.9087V16.9488C114.886 16.1042 115.554 15.4364 116.399 15.4364C117.243 15.4364 117.911 16.1042 117.911 16.9488V21.5645L123.489 16.0256C123.862 15.6524 124.236 15.4364 124.766 15.4364C125.61 15.4364 126.16 16.0845 126.16 16.8309C126.16 17.3023 125.944 17.6559 125.61 17.9701L121.741 21.5841L125.964 26.8873C126.2 27.1819 126.376 27.4962 126.376 27.948C126.376 28.7925 125.728 29.4211 124.844 29.4211C124.255 29.4211 123.902 29.1264 123.568 28.6943L119.639 23.5483L117.911 25.1589V27.9087C117.911 28.7533 117.243 29.4211 116.399 29.4211C115.554 29.4211 114.886 28.7533 114.886 27.9087ZM129.262 27.7908V17.0666C129.262 16.222 129.93 15.5542 130.774 15.5542H135.646C137.217 15.5542 138.454 15.9863 139.24 16.772C139.868 17.4005 140.183 18.1665 140.183 19.1093V19.1486C140.183 20.7003 139.358 21.5645 138.376 22.1145C139.967 22.7233 140.949 23.6465 140.949 25.4928V25.5321C140.949 28.0462 138.906 29.3032 135.803 29.3032H130.774C129.93 29.3032 129.262 28.6354 129.262 27.7908ZM132.208 21.1127H134.997C136.333 21.1127 137.178 20.6806 137.178 19.6593V19.62C137.178 18.7165 136.47 18.2058 135.194 18.2058H132.208V21.1127ZM132.208 26.6516H135.803C137.138 26.6516 137.944 26.1802 137.944 25.1589V25.1196C137.944 24.1964 137.256 23.6268 135.704 23.6268H132.208V26.6516ZM150.508 29.5389C146.265 29.5389 143.221 26.3766 143.221 22.468V22.4287C143.221 18.5201 146.305 15.3185 150.547 15.3185C154.79 15.3185 157.834 18.4808 157.834 22.3894V22.4287C157.834 26.3374 154.75 29.5389 150.508 29.5389ZM150.547 26.7498C152.983 26.7498 154.672 24.825 154.672 22.468V22.4287C154.672 20.0717 152.943 18.1076 150.508 18.1076C148.072 18.1076 146.383 20.0325 146.383 22.3894V22.4287C146.383 24.7857 148.112 26.7498 150.547 26.7498ZM158.337 29.3032L159.555 24.7857H164.112L162.894 29.3032H158.337ZM171.323 29.5782C168.593 29.5782 166.216 28.5961 164.547 27.0837L167.179 23.9411C168.75 25.2571 170.361 25.8856 171.814 25.8856C172.403 25.8856 172.816 25.6696 172.816 25.2767C172.816 24.8446 172.561 24.7071 170.557 23.9608C168.004 23.018 166.806 22.1145 166.806 20.0914C166.806 17.4398 169.241 15.2792 172.993 15.2792C175.448 15.2792 177.628 16.0649 179.121 17.3416L176.489 20.4842C175.448 19.6396 173.975 18.9522 172.521 18.9522C171.932 18.9522 171.52 19.1093 171.52 19.5021C171.52 19.9146 171.814 19.9932 173.719 20.7003C176.057 21.5645 177.549 22.5466 177.549 24.6482C177.549 27.4176 175.271 29.5782 171.323 29.5782ZM180.828 29.4014L180.043 15.5542H184.756L184.933 22.1537L188.92 15.5149H192.888L193.34 22.1537L197.052 15.5542H201.884L193.674 29.4014H189.667L189.078 22.5662L184.835 29.4014H180.828ZM196.65 29.3032L206.156 15.456H210.713L212.795 29.3032H207.904L207.668 27.4569H202.856L201.658 29.3032H196.65ZM204.899 24.1964H207.413L207.04 20.8574L204.899 24.1964ZM220.602 29.5978C217.185 29.5978 213.806 27.7908 213.806 23.4697C213.806 18.9718 217.342 15.2596 222.881 15.2596C225.473 15.2596 227.693 16.3792 228.635 17.538L225.768 20.4842C224.982 19.7575 223.804 19.2468 222.586 19.2468C219.974 19.2468 218.422 21.0342 218.422 23.2537C218.422 24.9625 219.659 25.807 221.093 25.807C221.584 25.807 221.977 25.7285 222.291 25.591L222.743 24.1179H220.484L221.231 21.1717H227.85L225.886 28.1837C224.53 28.989 222.586 29.5978 220.602 29.5978Z" fill="#068CD0"/>
<defs>
<filter id="filter0_d_3164_18341" x="0.723725" y="9.5155" width="53.6804" height="26.1989" filterUnits="userSpaceOnUse" color-interpolation-filters="sRGB">
<feFlood flood-opacity="0" result="BackgroundImageFix"/>
<feColorMatrix in="SourceAlpha" type="matrix" values="0 0 0 0 0 0 0 0 0 0 0 0 0 0 0 0 0 0 127 0" result="hardAlpha"/>
<feOffset dx="-0.308164" dy="0.308164"/>
<feGaussianBlur stdDeviation="0.0726783"/>
<feComposite in2="hardAlpha" operator="out"/>
<feColorMatrix type="matrix" values="0 0 0 0 0 0 0 0 0 0 0 0 0 0 0 0 0 0 0.25 0"/>
<feBlend mode="normal" in2="BackgroundImageFix" result="effect1_dropShadow_3164_18341"/>
<feBlend mode="normal" in="SourceGraphic" in2="effect1_dropShadow_3164_18341" result="shape"/>
</filter>
<linearGradient id="paint0_linear_3164_18341" x1="39.4244" y1="5.90286" x2="17.456" y2="40.4985" gradientUnits="userSpaceOnUse">
<stop stop-color="#0590D7"/>
<stop offset="1" stop-color="#058BCF"/>
</linearGradient>
<linearGradient id="paint1_linear_3164_18341" x1="40.0112" y1="15.1276" x2="34.681" y2="35.2028" gradientUnits="userSpaceOnUse">
<stop stop-color="#0590D7"/>
<stop offset="1" stop-color="#058BCF"/>
</linearGradient>
<linearGradient id="paint2_linear_3164_18341" x1="40.0112" y1="15.1276" x2="34.681" y2="35.2028" gradientUnits="userSpaceOnUse">
<stop stop-color="#0590D7"/>
<stop offset="1" stop-color="#058BCF"/>
</linearGradient>
<linearGradient id="paint3_linear_3164_18341" x1="40.0112" y1="15.1276" x2="34.681" y2="35.2028" gradientUnits="userSpaceOnUse">
<stop stop-color="#0590D7"/>
<stop offset="1" stop-color="#058BCF"/>
</linearGradient>
<linearGradient id="paint4_linear_3164_18341" x1="40.0112" y1="15.1276" x2="34.681" y2="35.2028" gradientUnits="userSpaceOnUse">
<stop stop-color="#0590D7"/>
<stop offset="1" stop-color="#058BCF"/>
</linearGradient>
<linearGradient id="paint5_linear_3164_18341" x1="40.0112" y1="15.1276" x2="34.681" y2="35.2028" gradientUnits="userSpaceOnUse">
<stop stop-color="#0590D7"/>
<stop offset="1" stop-color="#058BCF"/>
</linearGradient>
<linearGradient id="paint6_linear_3164_18341" x1="40.0112" y1="15.1276" x2="34.681" y2="35.2028" gradientUnits="userSpaceOnUse">
<stop stop-color="#0590D7"/>
<stop offset="1" stop-color="#058BCF"/>
</linearGradient>
<linearGradient id="paint7_linear_3164_18341" x1="40.0112" y1="15.1276" x2="34.681" y2="35.2028" gradientUnits="userSpaceOnUse">
<stop stop-color="#0590D7"/>
<stop offset="1" stop-color="#058BCF"/>
</linearGradient>
<linearGradient id="paint8_linear_3164_18341" x1="47.5359" y1="21.3372" x2="49.0375" y2="20.5113" gradientUnits="userSpaceOnUse">
<stop stop-opacity="0"/>
<stop offset="1"/>
</linearGradient>
<linearGradient id="paint9_linear_3164_18341" x1="35.8639" y1="22.8763" x2="36.7658" y2="22.277" gradientUnits="userSpaceOnUse">
<stop stop-opacity="0"/>
<stop offset="1"/>
</linearGradient>
<linearGradient id="paint10_linear_3164_18341" x1="33.98" y1="18.1968" x2="35.3611" y2="17.7227" gradientUnits="userSpaceOnUse">
<stop stop-opacity="0"/>
<stop offset="1"/>
</linearGradient>
<linearGradient id="paint11_linear_3164_18341" x1="20.8992" y1="22.6637" x2="22.2803" y2="22.1896" gradientUnits="userSpaceOnUse">
<stop stop-opacity="0"/>
<stop offset="1"/>
</linearGradient>
<linearGradient id="paint12_linear_3164_18341" x1="7.66812" y1="26.2174" x2="9.51054" y2="27.0137" gradientUnits="userSpaceOnUse">
<stop stop-opacity="0"/>
<stop offset="0.745277" stop-opacity="0.5"/>
<stop offset="0.859877"/>
</linearGradient>
</defs>
</svg>
