<svg width="14" height="12" viewBox="0 0 14 12" fill="none" xmlns="http://www.w3.org/2000/svg">
<path fill-rule="evenodd" clip-rule="evenodd" d="M7.81337 0.957447C7.03737 0.636447 6.17137 0.380447 5.63937 0.914447C5.19537 1.36045 4.94237 3.08745 4.87737 4.99945H1.5C0.947 4.99945 0.5 5.44645 0.5 5.99945C0.5 6.55245 0.947 6.99945 1.5 6.99945H4.87837C4.94337 8.90745 5.19637 10.6284 5.64037 11.0724C5.87437 11.3064 6.17137 11.3944 6.49437 11.3944C6.94737 11.3944 7.44937 11.2204 7.88837 11.0384C9.45937 10.3884 14.0004 7.64245 14.0004 5.99245C14.0004 4.28945 9.25337 1.55445 7.81337 0.957447Z" fill="white"/>
</svg>
