<svg width="22" height="24" viewBox="0 0 22 24" fill="none" xmlns="http://www.w3.org/2000/svg">
<path fill-rule="evenodd" clip-rule="evenodd" d="M19.1808 4.77558C20.7315 5.48041 21.7065 6.9488 21.9414 8.91057C22.0354 9.65064 22.0119 10.4377 21.9062 11.2248C21.5773 13.5859 20.4378 15.9471 18.9224 17.1336C17.7712 18.0264 16.3028 18.461 14.8109 18.6607C13.9064 18.7899 12.9901 18.8252 12.1326 18.8252C11.8271 18.8252 11.5217 18.8252 11.228 18.8134C9.06656 18.7547 6.31773 18.508 4.33246 17.0983C1.6663 15.2074 1.97119 11.1908 2.24134 7.6319L2.24147 7.63013C2.24494 7.58544 2.24841 7.54083 2.25188 7.4963C2.34221 6.33531 2.42812 5.23121 2.39418 4.24696C2.44117 2.77856 0.914044 2.48488 0.737837 2.46139C0.267951 2.37916 -0.0609686 1.93277 0.00951421 1.45114C0.0917442 0.981251 0.538136 0.664078 1.00802 0.722814C2.11225 0.887274 4.168 1.82705 4.15626 4.17647C4.15626 4.23554 4.15728 4.29454 4.15873 4.35352C4.16436 4.58353 4.35991 4.76708 4.58976 4.75691C6.85293 4.6535 9.10534 4.55059 11.369 4.47015C12.6377 4.42316 13.8946 4.38792 15.1633 4.36443C15.269 4.36443 15.3718 4.36149 15.4746 4.35855C15.5774 4.35562 15.6802 4.35268 15.7859 4.35268L15.829 4.35126C16.887 4.31628 18.0683 4.27723 19.1808 4.77558ZM12.0386 10.6961H15.2925C15.7859 10.6961 16.1736 10.2967 16.1736 9.8151C16.1736 9.33347 15.7859 8.93406 15.2925 8.93406H12.0386C11.557 8.93406 11.1576 9.33347 11.1576 9.8151C11.1576 10.2967 11.557 10.6961 12.0386 10.6961Z" fill="white"/>
<path d="M5.30007 20.2431C4.46133 20.2431 3.77882 20.9244 3.77882 21.7632C3.77882 22.6019 4.46133 23.2844 5.30007 23.2844C6.13882 23.2844 6.82015 22.6019 6.82015 21.7632C6.82015 20.9244 6.13882 20.2431 5.30007 20.2431Z" fill="white"/>
<path d="M17.4361 20.2431C16.5973 20.2431 15.916 20.9244 15.916 21.7632C15.916 22.6019 16.5973 23.2844 17.4361 23.2844C18.2748 23.2844 18.9573 22.6019 18.9573 21.7632C18.9573 20.9244 18.2748 20.2431 17.4361 20.2431Z" fill="white"/>
</svg>
