<svg width="95" height="64" viewBox="0 0 95 64" fill="none" xmlns="http://www.w3.org/2000/svg">
<mask id="path-1-outside-1_3189_20108" maskUnits="userSpaceOnUse" x="-6.40256" y="-2.32808" width="107.255" height="68.8816" fill="black">
<rect fill="white" x="-6.40256" y="-2.32808" width="107.255" height="68.8816"/>
<path d="M15.0371 48.6112L15.4935 31.0272L20.6604 29.7823L26.3103 36.7586L26.5351 28.3669L32.0088 27.0481L31.5524 44.632L26.645 45.8144L20.7503 38.5476L20.5107 47.2924L15.0371 48.6112ZM35.7134 43.6295L36.1698 26.0455L50.255 22.6519L50.1196 27.4774L41.4609 29.5636L41.4162 31.3467L49.4851 29.4026L49.3841 33.6457L41.3152 35.5898L41.2517 37.5022L50.0284 35.3876L49.9166 40.2074L35.7134 43.6295ZM58.2227 38.331L53.2714 21.9251L58.9338 20.5608L61.0562 28.437L63.9242 19.3086L68.6901 18.1603L71.1541 26.0041L73.7032 17.0024L79.5071 15.604L73.6527 34.6133L68.8397 35.773L66.1537 27.7331L63.0358 37.1714L58.2227 38.331Z"/>
</mask>
<path d="M15.0371 48.6112L15.4935 31.0272L20.6604 29.7823L26.3103 36.7586L26.5351 28.3669L32.0088 27.0481L31.5524 44.632L26.645 45.8144L20.7503 38.5476L20.5107 47.2924L15.0371 48.6112ZM35.7134 43.6295L36.1698 26.0455L50.255 22.6519L50.1196 27.4774L41.4609 29.5636L41.4162 31.3467L49.4851 29.4026L49.3841 33.6457L41.3152 35.5898L41.2517 37.5022L50.0284 35.3876L49.9166 40.2074L35.7134 43.6295ZM58.2227 38.331L53.2714 21.9251L58.9338 20.5608L61.0562 28.437L63.9242 19.3086L68.6901 18.1603L71.1541 26.0041L73.7032 17.0024L79.5071 15.604L73.6527 34.6133L68.8397 35.773L66.1537 27.7331L63.0358 37.1714L58.2227 38.331Z" fill="#F3F3F3"/>
<path d="M15.0371 48.6112L0.999398 48.2468C0.886086 52.6124 2.8103 56.7822 6.20559 59.5288C9.60087 62.2753 14.0807 63.2858 18.3263 62.2629L15.0371 48.6112ZM15.4935 31.0272L12.2043 17.3754C6.02836 18.8634 1.62063 24.3123 1.4558 30.6628L15.4935 31.0272ZM20.6604 29.7823L31.5729 20.9445C28.1638 16.735 22.6374 14.8617 17.3712 16.1305L20.6604 29.7823ZM26.3103 36.7586L15.3978 45.5964C19.098 50.1653 25.2527 51.9454 30.8205 50.057C36.3883 48.1687 40.1903 43.0118 40.3477 37.1346L26.3103 36.7586ZM26.5351 28.3669L23.2459 14.7151C17.0742 16.2021 12.6677 21.6448 12.4977 27.9909L26.5351 28.3669ZM32.0088 27.0481L46.0465 27.4124C46.1598 23.0468 44.2355 18.877 40.8403 16.1305C37.445 13.3839 32.9651 12.3734 28.7196 13.3963L32.0088 27.0481ZM31.5524 44.632L34.8416 58.2838C41.0175 56.7958 45.4252 51.3469 45.59 44.9964L31.5524 44.632ZM26.645 45.8144L15.7394 54.6607C19.1494 58.8645 24.6719 60.734 29.9342 59.4662L26.645 45.8144ZM20.7503 38.5476L31.6559 29.7012C27.9543 25.1381 21.8032 23.3619 16.239 25.2496C10.6747 27.1372 6.87405 32.2895 6.71314 38.163L20.7503 38.5476ZM20.5107 47.2924L23.7999 60.9441C29.9685 59.4579 34.3741 54.0197 34.5479 47.6769L20.5107 47.2924ZM29.0748 48.9755L29.5312 31.3916L1.4558 30.6628L0.999398 48.2468L29.0748 48.9755ZM18.7827 44.679L23.9496 43.4341L17.3712 16.1305L12.2043 17.3754L18.7827 44.679ZM9.74789 38.6201L15.3978 45.5964L37.2229 27.9208L31.5729 20.9445L9.74789 38.6201ZM40.3477 37.1346L40.5725 28.7429L12.4977 27.9909L12.273 36.3826L40.3477 37.1346ZM29.8243 42.0186L35.298 40.6998L28.7196 13.3963L23.2459 14.7151L29.8243 42.0186ZM17.9711 26.6837L17.5147 44.2677L45.59 44.9964L46.0465 27.4124L17.9711 26.6837ZM28.2632 30.9803L23.3558 32.1626L29.9342 59.4662L34.8416 58.2838L28.2632 30.9803ZM37.5505 36.9681L31.6559 29.7012L9.84471 47.3939L15.7394 54.6607L37.5505 36.9681ZM6.71314 38.163L6.47357 46.9078L34.5479 47.6769L34.7874 38.9321L6.71314 38.163ZM17.2215 33.6406L11.7479 34.9594L18.3263 62.2629L23.7999 60.9441L17.2215 33.6406ZM35.7134 43.6295L21.6758 43.2651C21.5624 47.6307 23.4867 51.8006 26.8819 54.5471C30.2772 57.2936 34.7571 58.3042 39.0026 57.2812L35.7134 43.6295ZM36.1698 26.0455L32.8806 12.3938C26.7047 13.8818 22.297 19.3307 22.1322 25.6812L36.1698 26.0455ZM50.255 22.6519L64.2919 23.0458C64.4146 18.6753 62.4944 14.497 59.098 11.7436C55.7016 8.99022 51.2165 7.97599 46.9658 9.00013L50.255 22.6519ZM50.1196 27.4774L53.4088 41.1291C59.574 39.6437 63.9786 34.2105 64.1565 27.8713L50.1196 27.4774ZM41.4609 29.5636L38.1717 15.9118C31.9912 17.4009 27.5821 22.8565 27.4228 29.2119L41.4609 29.5636ZM41.4162 31.3467L27.3782 30.995C27.2689 35.3585 29.1948 39.5247 32.5896 42.2683C35.9844 45.0119 40.462 46.0209 44.7054 44.9985L41.4162 31.3467ZM49.4851 29.4026L63.5235 29.7369C63.6273 25.3763 61.699 21.2151 58.3049 18.4756C54.9107 15.736 50.4363 14.7292 46.1959 15.7509L49.4851 29.4026ZM49.3841 33.6457L52.6733 47.2974C58.8601 45.8068 63.271 40.342 63.4225 33.9799L49.3841 33.6457ZM41.3152 35.5898L38.026 21.938C31.8866 23.4172 27.4898 28.8127 27.2805 35.1242L41.3152 35.5898ZM41.2517 37.5022L27.217 37.0367C27.0717 41.4191 28.9818 45.6179 32.3809 48.3879C35.7801 51.1579 40.278 52.1811 44.5409 51.154L41.2517 37.5022ZM50.0284 35.3876L64.0671 35.7134C64.1682 31.3542 62.2387 27.1955 58.8449 24.4579C55.4511 21.7203 50.9782 20.7145 46.7392 21.7359L50.0284 35.3876ZM49.9166 40.2074L53.2058 53.8592C59.3957 52.3678 63.8075 46.8985 63.9552 40.5332L49.9166 40.2074ZM49.7511 43.9938L50.2075 26.4099L22.1322 25.6812L21.6758 43.2651L49.7511 43.9938ZM39.459 39.6973L53.5442 36.3036L46.9658 9.00013L32.8806 12.3938L39.459 39.6973ZM36.2181 22.2579L36.0827 27.0834L64.1565 27.8713L64.2919 23.0458L36.2181 22.2579ZM46.8304 13.8256L38.1717 15.9118L44.7501 43.2153L53.4088 41.1291L46.8304 13.8256ZM27.4228 29.2119L27.3782 30.995L55.4542 31.6984L55.4989 29.9153L27.4228 29.2119ZM44.7054 44.9985L52.7743 43.0544L46.1959 15.7509L38.127 17.695L44.7054 44.9985ZM35.4466 29.0684L35.3456 33.3115L63.4225 33.9799L63.5235 29.7369L35.4466 29.0684ZM46.0949 19.9939L38.026 21.938L44.6044 49.2415L52.6733 47.2974L46.0949 19.9939ZM27.2805 35.1242L27.217 37.0367L55.2864 37.9678L55.3499 36.0553L27.2805 35.1242ZM44.5409 51.154L53.3176 49.0394L46.7392 21.7359L37.9625 23.8505L44.5409 51.154ZM35.9898 35.0619L35.8779 39.8817L63.9552 40.5332L64.0671 35.7134L35.9898 35.0619ZM46.6274 26.5557L32.4242 29.9777L39.0026 57.2812L53.2058 53.8592L46.6274 26.5557ZM58.2227 38.331L44.7792 42.3882C46.9307 49.517 54.2727 53.7269 61.5119 51.9827L58.2227 38.331ZM53.2714 21.9251L49.9822 8.27336C46.2273 9.17806 43.0108 11.5894 41.0896 14.9401C39.1683 18.2907 38.712 22.2847 39.8279 25.9824L53.2714 21.9251ZM58.9338 20.5608L72.4926 16.9073C70.5129 9.56037 63.0419 5.12681 55.6446 6.90909L58.9338 20.5608ZM61.0562 28.437L47.4974 32.0906C49.1211 38.1166 54.5272 42.3479 60.7668 42.4765C67.0064 42.6051 72.5822 38.6001 74.4529 32.6462L61.0562 28.437ZM63.9242 19.3086L60.635 5.65679C55.8418 6.81166 52.0053 10.3957 50.5275 15.0994L63.9242 19.3086ZM68.6901 18.1603L82.087 13.9518C79.8737 6.90593 72.5808 2.77862 65.4009 4.50853L68.6901 18.1603ZM71.1541 26.0041L57.7571 30.2125C59.6176 36.1351 65.1462 40.1333 71.3536 40.0451C77.5609 39.9569 82.9737 35.8033 84.6652 29.8302L71.1541 26.0041ZM73.7032 17.0024L70.414 3.35061C65.482 4.53891 61.5744 8.29502 60.1921 13.1762L73.7032 17.0024ZM79.5071 15.604L92.9275 19.7371C94.4127 14.9147 93.1963 9.66618 89.7412 5.98871C86.2861 2.31124 81.1235 0.770294 76.2179 1.95223L79.5071 15.604ZM73.6527 34.6133L76.9419 48.2651C81.7627 47.1036 85.6136 43.4856 87.0731 38.7465L73.6527 34.6133ZM68.8397 35.773L55.5209 40.2226C57.8302 47.1349 65.0437 51.1318 72.1289 49.4247L68.8397 35.773ZM66.1537 27.7331L79.4725 23.2835C77.5556 17.5457 72.1796 13.6805 66.1301 13.6907C60.0806 13.7008 54.7176 17.5841 52.82 23.3283L66.1537 27.7331ZM63.0358 37.1714L66.325 50.8231C71.047 49.6854 74.8458 46.1882 76.3694 41.5761L63.0358 37.1714ZM71.6662 34.2737L66.715 17.8679L39.8279 25.9824L44.7792 42.3882L71.6662 34.2737ZM56.5607 35.5769L62.223 34.2126L55.6446 6.90909L49.9822 8.27336L56.5607 35.5769ZM45.375 24.2144L47.4974 32.0906L74.6149 24.7835L72.4926 16.9073L45.375 24.2144ZM74.4529 32.6462L77.321 23.5177L50.5275 15.0994L47.6594 24.2279L74.4529 32.6462ZM67.2134 32.9603L71.9793 31.812L65.4009 4.50853L60.635 5.65679L67.2134 32.9603ZM55.2931 22.3687L57.7571 30.2125L84.551 21.7956L82.087 13.9518L55.2931 22.3687ZM84.6652 29.8302L87.2143 20.8285L60.1921 13.1762L57.643 22.1779L84.6652 29.8302ZM76.9924 30.6541L82.7963 29.2557L76.2179 1.95223L70.414 3.35061L76.9924 30.6541ZM66.0868 11.4708L60.2323 30.4802L87.0731 38.7465L92.9275 19.7371L66.0868 11.4708ZM70.3635 20.9616L65.5505 22.1212L72.1289 49.4247L76.9419 48.2651L70.3635 20.9616ZM82.1585 31.3234L79.4725 23.2835L52.8349 32.1826L55.5209 40.2226L82.1585 31.3234ZM52.82 23.3283L49.7021 32.7666L76.3694 41.5761L79.4874 32.1378L52.82 23.3283ZM59.7465 23.5196L54.9335 24.6792L61.5119 51.9827L66.325 50.8231L59.7465 23.5196Z" fill="#F3F3F3" mask="url(#path-1-outside-1_3189_20108)"/>
<rect x="18.8411" y="29.0963" width="18.1204" height="13.6462" fill="#021C3F"/>
<mask id="path-4-outside-2_3189_20108" maskUnits="userSpaceOnUse" x="2.27658" y="7.089" width="89.8966" height="50.0474" fill="black">
<rect fill="white" x="2.27658" y="7.089" width="89.8966" height="50.0474"/>
<path d="M15.0371 48.6112L15.4935 31.0272L20.6604 29.7823L26.3103 36.7586L26.5351 28.3669L32.0088 27.0481L31.5524 44.632L26.645 45.8144L20.7503 38.5476L20.5107 47.2924L15.0371 48.6112ZM35.7134 43.6295L36.1698 26.0455L50.255 22.6519L50.1196 27.4774L41.4609 29.5636L41.4162 31.3467L49.4851 29.4026L49.3841 33.6457L41.3152 35.5898L41.2517 37.5022L50.0284 35.3876L49.9166 40.2074L35.7134 43.6295ZM58.2227 38.331L53.2714 21.9251L58.9338 20.5608L61.0562 28.437L63.9242 19.3086L68.6901 18.1603L71.1541 26.0041L73.7032 17.0024L79.5071 15.604L73.6527 34.6133L68.8397 35.773L66.1537 27.7331L63.0358 37.1714L58.2227 38.331Z"/>
</mask>
<path d="M15.0371 48.6112L15.4935 31.0272L20.6604 29.7823L26.3103 36.7586L26.5351 28.3669L32.0088 27.0481L31.5524 44.632L26.645 45.8144L20.7503 38.5476L20.5107 47.2924L15.0371 48.6112ZM35.7134 43.6295L36.1698 26.0455L50.255 22.6519L50.1196 27.4774L41.4609 29.5636L41.4162 31.3467L49.4851 29.4026L49.3841 33.6457L41.3152 35.5898L41.2517 37.5022L50.0284 35.3876L49.9166 40.2074L35.7134 43.6295ZM58.2227 38.331L53.2714 21.9251L58.9338 20.5608L61.0562 28.437L63.9242 19.3086L68.6901 18.1603L71.1541 26.0041L73.7032 17.0024L79.5071 15.604L73.6527 34.6133L68.8397 35.773L66.1537 27.7331L63.0358 37.1714L58.2227 38.331Z" fill="#F3F3F3"/>
<path d="M15.0371 48.6112L8.43313 48.4398C8.37982 50.4935 9.28506 52.4552 10.8824 53.7473C12.4796 55.0394 14.5872 55.5148 16.5845 55.0336L15.0371 48.6112ZM15.4935 31.0272L13.9461 24.6048C11.0407 25.3048 8.96708 27.8682 8.88953 30.8558L15.4935 31.0272ZM20.6604 29.7823L25.7941 25.6246C24.1903 23.6443 21.5905 22.763 19.113 23.3599L20.6604 29.7823ZM26.3103 36.7586L21.1766 40.9163C22.9174 43.0657 25.8128 43.9031 28.4321 43.0148C31.0515 42.1264 32.8401 39.7004 32.9142 36.9355L26.3103 36.7586ZM26.5351 28.3669L24.9877 21.9445C22.0843 22.644 20.0113 25.2045 19.9313 28.19L26.5351 28.3669ZM32.0088 27.0481L38.6127 27.2195C38.666 25.1657 37.7608 23.204 36.1635 21.9119C34.5662 20.6199 32.4587 20.1445 30.4614 20.6257L32.0088 27.0481ZM31.5524 44.632L33.0998 51.0544C36.0052 50.3544 38.0788 47.791 38.1563 44.8034L31.5524 44.632ZM26.645 45.8144L21.5145 49.9761C23.1187 51.9537 25.7167 52.8333 28.1924 52.2368L26.645 45.8144ZM20.7503 38.5476L25.8808 34.3859C24.1394 32.2391 21.2456 31.4036 18.628 32.2916C16.0103 33.1796 14.2223 35.6035 14.1466 38.3667L20.7503 38.5476ZM20.5107 47.2924L22.0581 53.7148C24.9601 53.0156 27.0327 50.4572 27.1144 47.4733L20.5107 47.2924ZM21.641 48.7826L22.0974 31.1986L8.88953 30.8558L8.43313 48.4398L21.641 48.7826ZM17.0409 37.4496L22.2078 36.2047L19.113 23.3599L13.9461 24.6048L17.0409 37.4496ZM15.5267 33.94L21.1766 40.9163L31.4441 32.6009L25.7941 25.6246L15.5267 33.94ZM32.9142 36.9355L33.1389 28.5438L19.9313 28.19L19.7065 36.5817L32.9142 36.9355ZM28.0825 34.7893L33.5562 33.4705L30.4614 20.6257L24.9877 21.9445L28.0825 34.7893ZM25.4048 26.8767L24.9484 44.4606L38.1563 44.8034L38.6127 27.2195L25.4048 26.8767ZM30.005 38.2096L25.0976 39.392L28.1924 52.2368L33.0998 51.0544L30.005 38.2096ZM31.7754 41.6527L25.8808 34.3859L15.6198 42.7093L21.5145 49.9761L31.7754 41.6527ZM14.1466 38.3667L13.907 47.1115L27.1144 47.4733L27.354 38.7285L14.1466 38.3667ZM18.9633 40.87L13.4897 42.1888L16.5845 55.0336L22.0581 53.7148L18.9633 40.87ZM35.7134 43.6295L29.1095 43.4581C29.0562 45.5118 29.9614 47.4735 31.5587 48.7656C33.156 50.0577 35.2635 50.5331 37.2608 50.0519L35.7134 43.6295ZM36.1698 26.0455L34.6225 19.6231C31.717 20.3231 29.6434 22.8865 29.5659 25.8741L36.1698 26.0455ZM50.255 22.6519L56.8586 22.8372C56.9163 20.7811 56.013 18.8155 54.4152 17.5201C52.8173 16.2248 50.7073 15.7477 48.7076 16.2295L50.255 22.6519ZM50.1196 27.4774L51.667 33.8998C54.5674 33.201 56.6395 30.6449 56.7232 27.6627L50.1196 27.4774ZM41.4609 29.5636L39.9135 23.1412C37.0059 23.8417 34.9317 26.4083 34.8568 29.3981L41.4609 29.5636ZM41.4162 31.3467L34.8121 31.1813C34.7606 33.234 35.6667 35.194 37.2638 36.4847C38.8608 37.7754 40.9673 38.2501 42.9636 37.7691L41.4162 31.3467ZM49.4851 29.4026L56.0894 29.5599C56.1382 27.5085 55.231 25.5508 53.6343 24.262C52.0376 22.9732 49.9326 22.4996 47.9377 22.9802L49.4851 29.4026ZM49.3841 33.6457L50.9314 40.0681C53.842 39.3668 55.9171 36.7959 55.9884 33.8029L49.3841 33.6457ZM41.3152 35.5898L39.7678 29.1674C36.8795 29.8633 34.8111 32.4015 34.7126 35.3708L41.3152 35.5898ZM41.2517 37.5022L34.6492 37.2832C34.5808 39.3449 35.4794 41.3202 37.0785 42.6234C38.6776 43.9265 40.7937 44.4078 42.7991 43.9246L41.2517 37.5022ZM50.0284 35.3876L56.6328 35.5409C56.6804 33.4901 55.7727 31.5337 54.1761 30.2458C52.5795 28.9579 50.4752 28.4847 48.481 28.9652L50.0284 35.3876ZM49.9166 40.2074L51.464 46.6298C54.376 45.9282 56.4515 43.3552 56.521 40.3607L49.9166 40.2074ZM42.3174 43.8009L42.7738 26.2169L29.5659 25.8741L29.1095 43.4581L42.3174 43.8009ZM37.7172 32.4679L51.8024 29.0743L48.7076 16.2295L34.6225 19.6231L37.7172 32.4679ZM43.6514 22.4666L43.516 27.2921L56.7232 27.6627L56.8586 22.8372L43.6514 22.4666ZM48.5722 21.055L39.9135 23.1412L43.0082 35.986L51.667 33.8998L48.5722 21.055ZM34.8568 29.3981L34.8121 31.1813L48.0203 31.5122L48.065 29.729L34.8568 29.3981ZM42.9636 37.7691L51.0325 35.825L47.9377 22.9802L39.8688 24.9243L42.9636 37.7691ZM42.8808 29.2454L42.7797 33.4884L55.9884 33.8029L56.0894 29.5599L42.8808 29.2454ZM47.8367 27.2233L39.7678 29.1674L42.8626 42.0122L50.9314 40.0681L47.8367 27.2233ZM34.7126 35.3708L34.6492 37.2832L47.8543 37.7213L47.9177 35.8088L34.7126 35.3708ZM42.7991 43.9246L51.5758 41.81L48.481 28.9652L39.7043 31.0798L42.7991 43.9246ZM43.424 35.2344L43.3122 40.0542L56.521 40.3607L56.6328 35.5409L43.424 35.2344ZM48.3692 33.785L34.1661 37.2071L37.2608 50.0519L51.464 46.6298L48.3692 33.785ZM58.2227 38.331L51.8983 40.2397C52.9105 43.5934 56.3645 45.5739 59.7701 44.7534L58.2227 38.331ZM53.2714 21.9251L51.7241 15.5027C49.9576 15.9283 48.4444 17.0627 47.5405 18.639C46.6367 20.2153 46.422 22.0943 46.947 23.8338L53.2714 21.9251ZM58.9338 20.5608L65.3125 18.842C64.3811 15.3857 60.8665 13.3 57.3864 14.1384L58.9338 20.5608ZM61.0562 28.437L54.6775 30.1558C55.4414 32.9907 57.9846 34.9813 60.92 35.0418C63.8554 35.1023 66.4785 33.2182 67.3586 30.4172L61.0562 28.437ZM63.9242 19.3086L62.3768 12.8862C60.1219 13.4295 58.3171 15.1156 57.6218 17.3284L63.9242 19.3086ZM68.6901 18.1603L74.9926 16.1805C73.9513 12.8657 70.5204 10.9241 67.1427 11.7379L68.6901 18.1603ZM71.1541 26.0041L64.8515 27.9839C65.7268 30.7702 68.3277 32.6511 71.2479 32.6096C74.1681 32.5681 76.7145 30.614 77.5103 27.8041L71.1541 26.0041ZM73.7032 17.0024L72.1558 10.58C69.8356 11.139 67.9973 12.906 67.347 15.2024L73.7032 17.0024ZM79.5071 15.604L85.8207 17.5484C86.5194 15.2797 85.9471 12.8106 84.3217 11.0805C82.6963 9.35049 80.2676 8.62556 77.9598 9.18159L79.5071 15.604ZM73.6527 34.6133L75.2001 41.0357C77.468 40.4893 79.2796 38.7872 79.9663 36.5578L73.6527 34.6133ZM68.8397 35.773L62.5739 37.8663C63.6603 41.1181 67.0539 42.9985 70.3871 42.1954L68.8397 35.773ZM66.1537 27.7331L72.4195 25.6398C71.5177 22.9405 68.9885 21.1221 66.1426 21.1269C63.2967 21.1317 60.7736 22.9585 59.8809 25.6608L66.1537 27.7331ZM63.0358 37.1714L64.5831 43.5937C66.8046 43.0585 68.5917 41.4133 69.3085 39.2436L63.0358 37.1714ZM64.5472 36.4223L59.5959 20.0164L46.947 23.8338L51.8983 40.2397L64.5472 36.4223ZM54.8188 28.3475L60.4812 26.9832L57.3864 14.1384L51.7241 15.5027L54.8188 28.3475ZM52.5552 22.2796L54.6775 30.1558L67.4348 26.7182L65.3125 18.842L52.5552 22.2796ZM67.3586 30.4172L70.2267 21.2887L57.6218 17.3284L54.7537 26.4569L67.3586 30.4172ZM65.4716 25.7309L70.2375 24.5827L67.1427 11.7379L62.3768 12.8862L65.4716 25.7309ZM62.3875 20.1401L64.8515 27.9839L77.4566 24.0242L74.9926 16.1805L62.3875 20.1401ZM77.5103 27.8041L80.0594 18.8024L67.347 15.2024L64.7978 24.2041L77.5103 27.8041ZM75.2506 23.4248L81.0545 22.0264L77.9598 9.18159L72.1558 10.58L75.2506 23.4248ZM73.1936 13.6596L67.3392 32.6689L79.9663 36.5578L85.8207 17.5484L73.1936 13.6596ZM72.1053 28.1909L67.2923 29.3506L70.3871 42.1954L75.2001 41.0357L72.1053 28.1909ZM75.1055 33.6797L72.4195 25.6398L59.8879 29.8263L62.5739 37.8663L75.1055 33.6797ZM59.8809 25.6608L56.763 35.0991L69.3085 39.2436L72.4265 29.8053L59.8809 25.6608ZM61.4884 30.749L56.6753 31.9086L59.7701 44.7534L64.5831 43.5937L61.4884 30.749Z" fill="#021C3F" mask="url(#path-4-outside-2_3189_20108)"/>
</svg>
