<svg width="229" height="45" viewBox="0 0 229 45" fill="none" xmlns="http://www.w3.org/2000/svg">
<path d="M26.9368 0.545819C27.5218 0.208065 28.2426 0.208065 28.8276 0.545819L46.2518 10.6057C46.8369 10.9435 47.1972 11.5677 47.1972 12.2432V32.363C47.1972 33.0385 46.8369 33.6627 46.2518 34.0005L28.8276 44.0604C28.2426 44.3981 27.5218 44.3981 26.9368 44.0604L9.51254 34.0005C8.92753 33.6627 8.56715 33.0385 8.56715 32.363V12.2432C8.56715 11.5677 8.92753 10.9435 9.51254 10.6057L26.9368 0.545819Z" fill="url(#paint0_linear_3236_18355)"/>
<path fill-rule="evenodd" clip-rule="evenodd" d="M27.8813 3.27216L12.3455 12.2417C11.7605 12.5795 11.4001 13.2037 11.4001 13.8792V30.7267C11.4001 31.4023 11.7605 32.0265 12.3455 32.3642L26.9359 40.788C27.5209 41.1257 28.2417 41.1257 28.8267 40.788L44.3625 31.8184C44.3625 18.3562 34.8852 8.4676 27.8813 3.27216Z" fill="#76C5F0"/>
<path d="M44.3625 13.8792C44.3625 13.2037 44.0021 12.5795 43.4171 12.2417L27.8813 3.27216C34.8852 8.4676 44.3625 18.3562 44.3625 31.8184V13.8792Z" fill="#99D5F6"/>
<g filter="url(#filter0_d_3236_18355)">
<path d="M22.2187 28.5008L21.7734 29.8306C21.5986 30.3523 21.1689 30.7206 20.6695 30.84L17.9112 31.4997C17.1627 31.6786 16.3394 31.2745 16.0821 30.4707L13.7459 23.1735L12.9087 24.8277C13.5741 25.3233 14.0593 26.0181 14.2948 26.9348C14.6519 28.3253 14.3699 29.7357 13.4946 30.8871C12.637 32.0151 11.2874 32.8019 9.63304 33.1975C7.34843 33.7438 5.11119 33.4368 3.3242 32.5102C2.60943 32.1396 2.32654 31.2624 2.6901 30.544L3.91734 28.1189C3.44951 27.6477 3.13383 27.0562 2.95434 26.3574C2.20004 23.4207 4.47908 20.9313 7.60889 20.1828C9.52481 19.7247 11.4545 19.8518 13.0435 20.5293C13.1196 19.8936 13.597 19.3637 14.2184 19.2151L17.4443 18.4437C18.1185 18.2824 18.8529 18.5953 19.1796 19.2427L19.3255 18.7611C19.4293 18.1542 19.8917 17.6674 20.4872 17.525L23.1844 16.88C23.9091 16.7067 24.7043 17.0798 24.9878 17.8352L25.1574 17.2429C25.3159 16.6888 25.7601 16.2929 26.2814 16.1682L29.5692 15.382C30.6284 15.1287 31.7891 16.0956 31.4018 17.3376L31.1511 18.1416L32.1427 15.5896C32.3319 15.1026 32.7457 14.7626 33.2217 14.6488L36.3819 13.8931C37.083 13.7254 37.852 14.067 38.1598 14.785L39.7282 18.4439C39.9761 15.3059 42.3463 12.6476 46.0519 11.7615C48.1948 11.2491 50.391 11.6356 51.6933 12.5298C52.3798 13.0012 52.5513 13.9112 52.1378 14.5938L51.7576 15.2214C52.1826 15.4889 52.4821 15.9603 52.4676 16.5544L52.3336 22.0451C52.319 22.6424 51.9648 23.1523 51.462 23.3946L49.0656 24.5497M22.2187 28.5008L49.0656 24.5497M22.2187 28.5008L22.3452 28.8583C22.6199 29.635 23.426 30.0187 24.1594 29.8433L26.9188 29.1834C27.4284 29.0615 27.865 28.6804 28.0325 28.1433L28.0508 28.0846C28.4152 28.5572 29.0514 28.8137 29.6572 28.6688L33.0641 27.8541C33.5532 27.7372 33.976 27.3814 34.1574 26.8748L32.8439 26.4044L34.1574 26.8747L34.4062 26.18L35.8456 25.8358L35.8457 25.8362C36.1425 26.5748 36.9246 26.9309 37.6371 26.7605L40.9887 25.959C41.7986 25.7654 42.3504 24.9283 42.124 24.0758C42.4355 24.2956 42.7693 24.481 43.1208 24.6322C44.5712 25.2562 46.2051 25.2524 47.6473 24.9075C47.8965 24.8479 48.141 24.778 48.3797 24.6993M22.2187 28.5008L48.3797 24.6993M49.0656 24.5497C48.8473 24.6549 48.6123 24.7028 48.3797 24.6993M49.0656 24.5497L48.3797 24.6993M49.6858 22.621L49.6851 22.6214C49.7483 22.7811 49.7838 22.9526 49.7876 23.1287C49.7837 22.9428 49.7474 22.773 49.6858 22.621Z" stroke="#0590D7" stroke-width="2.93618" stroke-linejoin="round" shape-rendering="crispEdges"/>
</g>
<path d="M4 33L4.5 22L48.5 11.5H51.5V23L9 33.5L4 33Z" fill="#058DD3"/>
<path fill-rule="evenodd" clip-rule="evenodd" d="M47.6778 23.4225C45.2224 24.031 42.4734 23.3343 41.704 20.2297C41.6109 19.8541 41.554 19.4777 41.5324 19.1041C41.3682 16.2631 43.2447 13.5868 46.7617 12.7152C48.601 12.2593 50.3734 12.6526 51.2684 13.3025C51.2879 13.3167 51.2929 13.3431 51.2808 13.364L49.7898 15.9148C49.7768 15.9371 49.7485 15.9449 49.7257 15.9328C49.0361 15.5666 48.1179 15.4197 47.26 15.6323C45.6423 16.0333 44.8272 17.2478 44.8859 18.5966C44.8953 18.8127 44.9272 19.0323 44.9817 19.2526C45.286 20.4803 46.3254 20.8668 47.3556 20.6115C47.4183 20.5959 47.4994 20.577 47.5916 20.5555C47.9196 20.4788 48.3877 20.3695 48.6621 20.2652C48.6937 20.2532 48.7283 20.2758 48.7289 20.3096L48.7808 23.0238C48.7812 23.0433 48.7696 23.0611 48.7515 23.0685C48.4065 23.2108 48.0467 23.331 47.6778 23.4225Z" fill="white"/>
<path fill-rule="evenodd" clip-rule="evenodd" d="M47.6778 23.4225C45.2224 24.031 42.4734 23.3343 41.704 20.2297C41.6109 19.8541 41.554 19.4777 41.5324 19.1041C41.3682 16.2631 43.2447 13.5868 46.7617 12.7152C48.601 12.2593 50.3734 12.6526 51.2684 13.3025C51.2879 13.3167 51.2929 13.3431 51.2808 13.364L49.7898 15.9148C49.7768 15.9371 49.7485 15.9449 49.7257 15.9328C49.0361 15.5666 48.1179 15.4197 47.26 15.6323C45.6423 16.0333 44.8272 17.2478 44.8859 18.5966C44.8953 18.8127 44.9272 19.0323 44.9817 19.2526C45.286 20.4803 46.3254 20.8668 47.3556 20.6115C47.4183 20.5959 47.4994 20.577 47.5916 20.5555C47.9196 20.4788 48.3877 20.3695 48.6621 20.2652C48.6937 20.2532 48.7283 20.2758 48.7289 20.3096L48.7808 23.0238C48.7812 23.0433 48.7696 23.0611 48.7515 23.0685C48.4065 23.2108 48.0467 23.331 47.6778 23.4225Z" fill="white"/>
<path d="M48.7746 20.2111L48.8496 23.1017H48.5494L47.0606 20.6325C46.9873 20.6075 47.0102 20.5489 47.0102 20.5489L47.0606 20.6325C47.1034 20.6471 47.1788 20.6503 47.3105 20.624C48.5493 20.3612 48.7746 20.2111 48.7746 20.2111Z" fill="url(#paint1_linear_3236_18355)" fill-opacity="0.2"/>
<path d="M51.2261 21.9498L48.7653 23.179C48.7337 23.1948 48.6966 23.1718 48.6966 23.1365L48.6966 19.3736C48.6966 19.3416 48.6656 19.3187 48.635 19.3282L46.6935 19.9283C46.6629 19.9377 46.6319 19.9148 46.6319 19.8828L46.6342 17.2817C46.6342 17.2598 46.6491 17.2407 46.6704 17.2355L51.3294 16.0954C51.3598 16.0879 51.3889 16.1114 51.3882 16.1427L51.2524 21.9084C51.252 21.926 51.2419 21.9419 51.2261 21.9498Z" fill="white"/>
<path fill-rule="evenodd" clip-rule="evenodd" d="M29.5896 27.3843C29.5524 27.3935 29.5202 27.3573 29.5336 27.3215L33.8576 15.788C33.8631 15.7733 33.8755 15.7623 33.8907 15.7585L37.1006 14.963C37.1234 14.9573 37.1469 14.9692 37.1559 14.9909L41.0807 24.4802C41.0918 24.507 41.0764 24.5375 41.0482 24.5445L37.6286 25.392C37.6054 25.3977 37.5815 25.3853 37.5729 25.363L37.105 24.1565C37.0964 24.1342 37.0725 24.1218 37.0493 24.1276L33.6576 24.9682C33.6419 24.972 33.6293 24.9835 33.6241 24.9988L33.1089 26.4898C33.1036 26.505 33.091 26.5165 33.0754 26.5204L29.5896 27.3843ZM36.3074 21.7706C36.3173 21.7972 36.3018 21.8264 36.2743 21.8332L34.6039 22.2472C34.5675 22.2562 34.5354 22.2214 34.5475 22.1858L35.4201 19.6148C35.4345 19.5724 35.4942 19.5716 35.5097 19.6136L36.3074 21.7706Z" fill="white"/>
<path d="M36.3519 21.8252L37.1027 24.1152L36.1267 24.3404L35.3008 22.0504L36.3519 21.8252Z" fill="url(#paint2_linear_3236_18355)" fill-opacity="0.2"/>
<path d="M35.4886 19.4974L33.8744 15.7808L33.3113 17.1698L34.7378 21.6372L35.4886 19.4974Z" fill="url(#paint3_linear_3236_18355)" fill-opacity="0.2"/>
<path fill-rule="evenodd" clip-rule="evenodd" d="M14.7607 20.4774C14.7342 20.484 14.7187 20.5115 14.7268 20.5376L17.7288 30.2555C17.7362 30.2796 17.7612 30.2937 17.7856 30.2876L20.5952 29.5913C20.6111 29.5874 20.6239 29.5754 20.629 29.5598L22.4475 23.9321C22.4504 23.9233 22.4506 23.9139 22.4482 23.905L21.0834 18.8805L19.4487 24.2045C19.4347 24.2499 19.3701 24.249 19.3575 24.2032L18.1111 19.6948C18.1042 19.6699 18.0788 19.6551 18.0538 19.6613L14.7607 20.4774Z" fill="white"/>
<path d="M23.8712 18.0662C23.8636 18.0424 23.8388 18.0286 23.8146 18.0346L21.0543 18.7187C21.0284 18.7251 21.0128 18.7515 21.0198 18.7773L22.3755 23.7685L24.0019 28.5332C24.0099 28.5566 24.0344 28.5699 24.0583 28.564L26.8685 27.8675C26.8848 27.8635 26.8978 27.8512 26.9026 27.8351L30.3038 16.5302C30.3144 16.4949 30.2826 16.4615 30.2468 16.4704L26.8833 17.304C26.8667 17.3081 26.8535 17.3209 26.8489 17.3375L25.4067 22.5598C25.3941 22.6053 25.3301 22.6066 25.3157 22.5617L23.8712 18.0662Z" fill="white"/>
<path d="M22.4453 23.9642L21.0563 18.9337L20.1598 21.922C20.1569 21.9317 20.1571 21.9421 20.1606 21.9517L21.6944 26.2166L22.4453 23.9642Z" fill="url(#paint4_linear_3236_18355)" fill-opacity="0.2"/>
<path d="M9.51585 32.0483C7.5722 32.53 5.70626 32.2572 4.2434 31.4842C4.22083 31.4723 4.21198 31.4446 4.22318 31.4217L5.51366 28.7789C5.52518 28.7553 5.55381 28.7457 5.57746 28.757C6.92443 29.4053 8.17783 29.564 9.21113 29.3079C9.63448 29.203 9.89236 28.9743 9.82241 28.6921C9.7468 28.387 9.5447 28.3302 8.04577 28.158C8.01933 28.155 7.99249 28.1519 7.96523 28.1488C5.96283 27.9261 4.94113 27.4903 4.5809 26.0368C4.10875 24.1317 5.47389 22.1457 8.16924 21.4777C9.91424 21.0452 11.6028 21.2131 12.8973 21.8474C12.9207 21.8589 12.9301 21.8871 12.9187 21.9105L11.6285 24.5527C11.6171 24.5761 11.5892 24.586 11.5656 24.5751C10.6727 24.1662 9.51251 23.9458 8.48457 24.2005C8.06122 24.3055 7.79285 24.4918 7.8628 24.774C7.9217 25.0117 8.07849 25.0613 8.90921 25.1587C9.11436 25.1828 9.36062 25.2097 9.65665 25.2431C11.4898 25.4479 12.7372 25.8877 13.1114 27.3976C13.6046 29.3874 12.3523 31.3454 9.51585 32.0483Z" fill="white"/>
<path d="M8.544 28.2048L9.45333 25.2949C9.4621 25.2669 9.44357 25.2377 9.41447 25.2337L8.3814 25.0912L7.97188 24.9888C7.94851 24.983 7.92447 24.9955 7.91592 25.0181L6.82513 27.8905C6.81453 27.9184 6.832 27.949 6.86142 27.9542L8.49049 28.2375C8.51399 28.2416 8.53688 28.2276 8.544 28.2048Z" fill="url(#paint5_linear_3236_18355)" fill-opacity="0.2"/>
<path d="M43.4801 3.82794C43.4801 4.76899 42.7172 5.53186 41.7762 5.53186C40.8351 5.53186 40.0723 4.76899 40.0723 3.82794C40.0723 2.88689 40.8351 2.12402 41.7762 2.12402C42.7172 2.12402 43.4801 2.88689 43.4801 3.82794Z" fill="#0690D7"/>
<circle cx="37.0806" cy="1.46049" r="1.21709" fill="#0690D7"/>
<path d="M73.9449 29.4996C72.1379 29.4996 70.3112 28.9497 68.7792 27.8498C68.4453 27.6141 68.2096 27.1819 68.2096 26.7106C68.2096 25.9249 68.8381 25.316 69.6238 25.316C70.0166 25.316 70.2916 25.4535 70.488 25.591C71.529 26.357 72.6682 26.8284 74.0038 26.8284C75.2412 26.8284 75.9876 26.3374 75.9876 25.5321V25.4928C75.9876 24.7268 75.5162 24.3339 73.2182 23.7447C70.4487 23.0376 68.6613 22.2716 68.6613 19.5414V19.5021C68.6613 17.0077 70.6648 15.3578 73.4735 15.3578C75.143 15.3578 76.5965 15.7899 77.8339 16.5756C78.1678 16.772 78.5017 17.1845 78.5017 17.7737C78.5017 18.5594 77.8732 19.1682 77.0875 19.1682C76.7929 19.1682 76.5572 19.0897 76.3215 18.9522C75.3198 18.3629 74.377 18.029 73.4342 18.029C72.2754 18.029 71.6665 18.5594 71.6665 19.2272V19.2664C71.6665 20.17 72.2557 20.4646 74.6323 21.0735C77.4214 21.8002 78.9927 22.8019 78.9927 25.1982V25.2374C78.9927 27.9676 76.9108 29.4996 73.9449 29.4996ZM82.0106 27.948V16.988C82.0106 16.1435 82.6784 15.4757 83.523 15.4757H83.8569C84.5051 15.4757 84.9568 15.8096 85.2318 16.2613L88.8851 22.2127L92.5581 16.2417C92.8723 15.731 93.3044 15.4757 93.9133 15.4757H94.2472C95.0918 15.4757 95.7596 16.1435 95.7596 16.988V27.9087C95.7596 28.7533 95.0918 29.4211 94.2472 29.4211C93.4223 29.4211 92.7545 28.7336 92.7545 27.9087V21.0538L90.1029 25.1392C89.7886 25.6106 89.3958 25.9053 88.8458 25.9053C88.2959 25.9053 87.903 25.6106 87.5888 25.1392L84.9765 21.1127V27.948C84.9765 28.7729 84.3087 29.4211 83.4837 29.4211C82.6588 29.4211 82.0106 28.7729 82.0106 27.948ZM98.5126 28.0069C98.5126 27.7908 98.5912 27.5748 98.6894 27.3587L103.482 16.5363C103.816 15.7899 104.425 15.3382 105.25 15.3382H105.426C106.251 15.3382 106.841 15.7899 107.175 16.5363L111.967 27.3587C112.065 27.5748 112.124 27.7712 112.124 27.9676C112.124 28.7729 111.496 29.4211 110.69 29.4211C109.983 29.4211 109.512 29.0086 109.237 28.3801L108.314 26.2195H102.264L101.302 28.4783C101.046 29.0675 100.536 29.4211 99.9072 29.4211C99.1215 29.4211 98.5126 28.7925 98.5126 28.0069ZM103.384 23.5483H107.194L105.289 19.0111L103.384 23.5483ZM114.886 27.9087V16.9488C114.886 16.1042 115.554 15.4364 116.399 15.4364C117.243 15.4364 117.911 16.1042 117.911 16.9488V21.5645L123.489 16.0256C123.862 15.6524 124.236 15.4364 124.766 15.4364C125.61 15.4364 126.16 16.0845 126.16 16.8309C126.16 17.3023 125.944 17.6559 125.61 17.9701L121.741 21.5841L125.964 26.8873C126.2 27.1819 126.376 27.4962 126.376 27.948C126.376 28.7925 125.728 29.4211 124.844 29.4211C124.255 29.4211 123.902 29.1264 123.568 28.6943L119.639 23.5483L117.911 25.1589V27.9087C117.911 28.7533 117.243 29.4211 116.399 29.4211C115.554 29.4211 114.886 28.7533 114.886 27.9087ZM129.262 27.7908V17.0666C129.262 16.222 129.93 15.5542 130.774 15.5542H135.646C137.217 15.5542 138.454 15.9863 139.24 16.772C139.868 17.4005 140.183 18.1665 140.183 19.1093V19.1486C140.183 20.7003 139.358 21.5645 138.376 22.1145C139.967 22.7233 140.949 23.6465 140.949 25.4928V25.5321C140.949 28.0462 138.906 29.3032 135.803 29.3032H130.774C129.93 29.3032 129.262 28.6354 129.262 27.7908ZM132.208 21.1127H134.997C136.333 21.1127 137.178 20.6806 137.178 19.6593V19.62C137.178 18.7165 136.47 18.2058 135.194 18.2058H132.208V21.1127ZM132.208 26.6516H135.803C137.138 26.6516 137.944 26.1802 137.944 25.1589V25.1196C137.944 24.1964 137.256 23.6268 135.704 23.6268H132.208V26.6516ZM150.508 29.5389C146.265 29.5389 143.221 26.3766 143.221 22.468V22.4287C143.221 18.5201 146.305 15.3185 150.547 15.3185C154.79 15.3185 157.834 18.4808 157.834 22.3894V22.4287C157.834 26.3374 154.75 29.5389 150.508 29.5389ZM150.547 26.7498C152.983 26.7498 154.672 24.825 154.672 22.468V22.4287C154.672 20.0717 152.943 18.1076 150.508 18.1076C148.072 18.1076 146.383 20.0325 146.383 22.3894V22.4287C146.383 24.7857 148.112 26.7498 150.547 26.7498ZM158.337 29.3032L159.555 24.7857H164.112L162.894 29.3032H158.337ZM171.323 29.5782C168.593 29.5782 166.216 28.5961 164.547 27.0837L167.179 23.9411C168.75 25.2571 170.361 25.8856 171.814 25.8856C172.403 25.8856 172.816 25.6696 172.816 25.2767C172.816 24.8446 172.561 24.7071 170.557 23.9608C168.004 23.018 166.806 22.1145 166.806 20.0914C166.806 17.4398 169.241 15.2792 172.993 15.2792C175.448 15.2792 177.628 16.0649 179.121 17.3416L176.489 20.4842C175.448 19.6396 173.975 18.9522 172.521 18.9522C171.932 18.9522 171.52 19.1093 171.52 19.5021C171.52 19.9146 171.814 19.9932 173.719 20.7003C176.057 21.5645 177.549 22.5466 177.549 24.6482C177.549 27.4176 175.271 29.5782 171.323 29.5782ZM180.828 29.4014L180.043 15.5542H184.756L184.933 22.1537L188.92 15.5149H192.888L193.34 22.1537L197.052 15.5542H201.884L193.674 29.4014H189.667L189.078 22.5662L184.835 29.4014H180.828ZM196.65 29.3032L206.156 15.456H210.713L212.795 29.3032H207.904L207.668 27.4569H202.856L201.658 29.3032H196.65ZM204.899 24.1964H207.413L207.04 20.8574L204.899 24.1964ZM220.602 29.5978C217.185 29.5978 213.806 27.7908 213.806 23.4697C213.806 18.9718 217.342 15.2596 222.881 15.2596C225.473 15.2596 227.693 16.3792 228.635 17.538L225.768 20.4842C224.982 19.7575 223.804 19.2468 222.586 19.2468C219.974 19.2468 218.422 21.0342 218.422 23.2537C218.422 24.9625 219.659 25.807 221.093 25.807C221.584 25.807 221.977 25.7285 222.291 25.591L222.743 24.1179H220.484L221.231 21.1717H227.85L225.886 28.1837C224.53 28.989 222.586 29.5978 220.602 29.5978Z" fill="#068CD0"/>
<defs>
<filter id="filter0_d_3236_18355" x="0.61936" y="10.0648" width="53.3169" height="25.3152" filterUnits="userSpaceOnUse" color-interpolation-filters="sRGB">
<feFlood flood-opacity="0" result="BackgroundImageFix"/>
<feColorMatrix in="SourceAlpha" type="matrix" values="0 0 0 0 0 0 0 0 0 0 0 0 0 0 0 0 0 0 127 0" result="hardAlpha"/>
<feOffset dx="-0.301608" dy="0.301608"/>
<feGaussianBlur stdDeviation="0.0711322"/>
<feComposite in2="hardAlpha" operator="out"/>
<feColorMatrix type="matrix" values="0 0 0 0 0 0 0 0 0 0 0 0 0 0 0 0 0 0 0.25 0"/>
<feBlend mode="normal" in2="BackgroundImageFix" result="effect1_dropShadow_3236_18355"/>
<feBlend mode="normal" in="SourceGraphic" in2="effect1_dropShadow_3236_18355" result="shape"/>
</filter>
<linearGradient id="paint0_linear_3236_18355" x1="39.4244" y1="5.90286" x2="17.456" y2="40.4985" gradientUnits="userSpaceOnUse">
<stop stop-color="#0590D7"/>
<stop offset="1" stop-color="#058BCF"/>
</linearGradient>
<linearGradient id="paint1_linear_3236_18355" x1="47.5358" y1="21.3373" x2="49.0374" y2="20.5114" gradientUnits="userSpaceOnUse">
<stop stop-opacity="0"/>
<stop offset="1"/>
</linearGradient>
<linearGradient id="paint2_linear_3236_18355" x1="35.8639" y1="22.8763" x2="36.7658" y2="22.2771" gradientUnits="userSpaceOnUse">
<stop stop-opacity="0"/>
<stop offset="1"/>
</linearGradient>
<linearGradient id="paint3_linear_3236_18355" x1="33.98" y1="18.1969" x2="35.3611" y2="17.7228" gradientUnits="userSpaceOnUse">
<stop stop-opacity="0"/>
<stop offset="1"/>
</linearGradient>
<linearGradient id="paint4_linear_3236_18355" x1="20.899" y1="22.6637" x2="22.2801" y2="22.1896" gradientUnits="userSpaceOnUse">
<stop stop-opacity="0"/>
<stop offset="1"/>
</linearGradient>
<linearGradient id="paint5_linear_3236_18355" x1="7.66812" y1="26.2174" x2="9.51054" y2="27.0137" gradientUnits="userSpaceOnUse">
<stop stop-opacity="0"/>
<stop offset="0.745277" stop-opacity="0.5"/>
<stop offset="0.859877"/>
</linearGradient>
</defs>
</svg>
