<svg width="96" height="96" viewBox="0 0 96 96" fill="none" xmlns="http://www.w3.org/2000/svg">
<rect width="95.145" height="95.145" fill="#E4F6FF"/>
<path d="M59.0501 36.8226C56.5546 35.185 49.1853 33.2353 39.2423 37.9534C26.0241 44.7771 28.5454 51.2496 30.1961 53.2772C30.781 50.9636 33.8457 45.5567 41.4257 42.4374C53.5131 37.4631 58.5821 40.1369 61.3469 41.3066C61.4092 39.5001 60.6944 37.9017 59.0501 36.8226Z" fill="#00699E"/>
<path fill-rule="evenodd" clip-rule="evenodd" d="M60.025 36.0817C53.2248 31.4339 42.8946 34.6391 38.5795 36.8226C33.1168 39.6766 26.2386 45.2368 27.6898 51.2885C27.887 51.8046 28.1296 52.4414 28.3877 53.1222C28.5987 53.5238 28.8497 53.9266 29.1434 54.3299C34.0952 60.3737 48.6265 56.6641 55.0604 52.531C60.0458 49.3283 63.9707 43.5178 62.2475 38.8759L62.2379 38.8501C61.8602 37.8491 61.1517 36.9113 60.025 36.0817ZM50.4719 53.2772C39.2423 58.3636 31.8468 55.3048 30.1961 53.2772C28.5454 51.2496 26.0241 44.7771 39.2423 37.9534C49.1853 33.2353 56.5546 35.185 59.0501 36.8226C60.6944 37.9017 61.4092 39.5001 61.3469 41.3066C61.2039 45.4547 57.1004 50.2748 50.4719 53.2772Z" fill="#76C5F0"/>
<path d="M55.0604 52.531C48.6265 56.6641 34.0952 60.3737 29.1434 54.3299C28.8497 53.9266 28.5987 53.5238 28.3877 53.1222C29.2083 55.2869 30.2833 58.3263 31.9382 60.0564C33.5931 61.7865 40.883 64.985 52.331 60.0564C63.779 55.1278 65.4057 48.6891 64.8208 45.7517L62.2475 38.8759C63.9707 43.5178 60.0458 49.3283 55.0604 52.531Z" fill="#068CD0"/>
<path d="M30.1961 53.2772C31.8468 55.3048 39.2423 58.3636 50.4719 53.2772C57.1004 50.2748 61.2039 45.4547 61.3469 41.3066M30.1961 53.2772C28.5454 51.2496 26.0241 44.7771 39.2423 37.9534C49.1853 33.2353 56.5546 35.185 59.0501 36.8226C60.6944 37.9017 61.4092 39.5001 61.3469 41.3066M30.1961 53.2772C30.781 50.9636 33.8457 45.5567 41.4257 42.4374C53.5131 37.4631 58.5821 40.1369 61.3469 41.3066M62.2379 38.8501C61.8602 37.8491 61.1517 36.9113 60.025 36.0817C53.2248 31.4339 42.8946 34.6391 38.5795 36.8226C33.1168 39.6766 26.2386 45.2368 27.6898 51.2885M62.2379 38.8501L62.2475 38.8759M62.2379 38.8501C62.2411 38.8587 62.2443 38.8673 62.2475 38.8759M27.6898 51.2885C27.887 51.8046 28.1296 52.4414 28.3877 53.1222M27.6898 51.2885C27.8353 51.8956 28.0647 52.5075 28.3877 53.1222M28.3877 53.1222C28.5987 53.5238 28.8497 53.9266 29.1434 54.3299C34.0952 60.3737 48.6265 56.6641 55.0604 52.531C60.0458 49.3283 63.9707 43.5178 62.2475 38.8759M28.3877 53.1222C29.2083 55.2869 30.2833 58.3263 31.9382 60.0564C33.5931 61.7865 40.883 64.985 52.331 60.0564C63.779 55.1278 65.4057 48.6891 64.8208 45.7517L62.2475 38.8759" stroke="#068CD0" stroke-width="0.0779837"/>
<path d="M46.7487 28.4139C46.433 28.4825 46.2327 28.794 46.3013 29.1097C46.3699 29.4253 46.6814 29.6256 46.9971 29.557L46.7487 28.4139ZM33.6543 66.6466L38.9733 70.8082L39.9179 64.121L33.6543 66.6466ZM69.9864 48.6699C67.4828 59.3104 55.4663 68.1419 38.9127 66.7997L38.8182 67.9656C55.7977 69.3424 68.4571 60.2769 71.1251 48.9378L69.9864 48.6699ZM46.9971 29.557C54.5095 27.9245 60.9471 29.8202 65.1517 33.5439C69.356 37.2675 71.3583 42.8397 69.9864 48.6699L71.1251 48.9378C72.6003 42.6682 70.4378 36.663 65.9272 32.6682C61.4169 28.6737 54.5895 26.7101 46.7487 28.4139L46.9971 29.557Z" fill="#068CD0"/>
<path d="M16.7323 25.2C14.8923 25.2 13.0323 24.64 11.4723 23.52C11.1323 23.28 10.8923 22.84 10.8923 22.36C10.8923 21.56 11.5323 20.94 12.3323 20.94C12.7323 20.94 13.0123 21.08 13.2123 21.22C14.2723 22 15.4323 22.48 16.7923 22.48C18.0523 22.48 18.8123 21.98 18.8123 21.16V21.12C18.8123 20.34 18.3323 19.94 15.9923 19.34C13.1723 18.62 11.3523 17.84 11.3523 15.06V15.02C11.3523 12.48 13.3923 10.8 16.2523 10.8C17.9523 10.8 19.4323 11.24 20.6923 12.04C21.0323 12.24 21.3723 12.66 21.3723 13.26C21.3723 14.06 20.7323 14.68 19.9323 14.68C19.6323 14.68 19.3923 14.6 19.1523 14.46C18.1323 13.86 17.1723 13.52 16.2123 13.52C15.0323 13.52 14.4123 14.06 14.4123 14.74V14.78C14.4123 15.7 15.0123 16 17.4323 16.62C20.2723 17.36 21.8723 18.38 21.8723 20.82V20.86C21.8723 23.64 19.7523 25.2 16.7323 25.2Z" fill="#00699E"/>
<path d="M59.9245 87.3V82.46L59.3845 82.6C59.3045 82.62 59.1945 82.64 59.1145 82.64C58.7545 82.64 58.4445 82.34 58.4445 81.98C58.4445 81.67 58.6445 81.41 58.9545 81.32L59.9445 81.03C60.2345 80.95 60.4545 80.9 60.6645 80.9H60.6845C61.1045 80.9 61.4445 81.24 61.4445 81.66V87.3C61.4445 87.72 61.1045 88.06 60.6845 88.06C60.2645 88.06 59.9245 87.72 59.9245 87.3ZM65.9533 88.12C65.0433 88.12 64.4233 87.86 63.9333 87.37C63.4233 86.86 63.1033 86.11 63.1033 84.72V84.7C63.1033 82.54 64.0833 80.88 66.1733 80.88C66.8733 80.88 67.4433 81.05 67.8633 81.3C68.1033 81.44 68.2633 81.65 68.2633 81.96C68.2633 82.36 67.9333 82.67 67.5333 82.67C67.4033 82.67 67.2633 82.62 67.1533 82.56C66.8333 82.38 66.5433 82.28 66.1233 82.28C65.2533 82.28 64.8133 82.98 64.7133 83.9C65.0633 83.67 65.4733 83.45 66.1633 83.45C67.5533 83.45 68.6233 84.22 68.6233 85.68V85.7C68.6233 87.13 67.4733 88.12 65.9533 88.12ZM65.8933 86.8C66.6533 86.8 67.0933 86.37 67.0933 85.77V85.75C67.0933 85.16 66.6333 84.73 65.8733 84.73C65.1133 84.73 64.6733 85.15 64.6733 85.74V85.76C64.6733 86.35 65.1333 86.8 65.8933 86.8ZM72.5944 88.12C70.9844 88.12 69.8044 86.88 69.8044 85.35V85.33C69.8044 83.8 70.9744 82.54 72.6144 82.54C73.4244 82.54 73.9944 82.76 74.4444 83.14C74.5444 83.22 74.6844 83.4 74.6844 83.66C74.6844 84.04 74.3744 84.34 73.9944 84.34C73.7944 84.34 73.6444 84.26 73.5544 84.19C73.2844 83.98 73.0044 83.85 72.6044 83.85C71.8444 83.85 71.3044 84.52 71.3044 85.31V85.33C71.3044 86.15 71.8344 86.81 72.6644 86.81C73.0644 86.81 73.3744 86.67 73.6644 86.44C73.7444 86.38 73.8944 86.3 74.0744 86.3C74.4344 86.3 74.7144 86.59 74.7144 86.95C74.7144 87.15 74.6244 87.31 74.4944 87.43C74.0444 87.84 73.4744 88.12 72.5944 88.12ZM75.9773 87.3V83.34C75.9773 82.92 76.3173 82.58 76.7373 82.58C77.1573 82.58 77.4973 82.92 77.4973 83.34V83.4C77.8473 82.95 78.3073 82.54 79.0773 82.54C79.7773 82.54 80.3073 82.85 80.5873 83.39C81.0573 82.84 81.6173 82.54 82.3473 82.54C83.4773 82.54 84.1573 83.22 84.1573 84.51V87.3C84.1573 87.72 83.8173 88.06 83.3973 88.06C82.9773 88.06 82.6373 87.72 82.6373 87.3V85.01C82.6373 84.29 82.3173 83.92 81.7473 83.92C81.1773 83.92 80.8273 84.29 80.8273 85.01V87.3C80.8273 87.72 80.4873 88.06 80.0673 88.06C79.6473 88.06 79.3073 87.72 79.3073 87.3V85.01C79.3073 84.29 78.9873 83.92 78.4173 83.92C77.8473 83.92 77.4973 84.29 77.4973 85.01V87.3C77.4973 87.72 77.1573 88.06 76.7373 88.06C76.3173 88.06 75.9773 87.72 75.9773 87.3Z" fill="#00699E"/>
</svg>
