<svg width="96" height="96" viewBox="0 0 96 96" fill="none" xmlns="http://www.w3.org/2000/svg">
<rect x="0.85498" width="95.145" height="95.145" fill="#E4F6FF"/>
<path d="M62.1584 34.2643C59.0893 32.2502 50.0261 29.8525 37.7978 35.655C21.5415 44.0471 24.6423 52.0073 26.6724 54.5009C27.3916 51.6557 31.1607 45.006 40.483 41.1697C55.3488 35.0521 61.5828 38.3404 64.9832 39.779C65.0598 37.5572 64.1807 35.5915 62.1584 34.2643Z" fill="#00699E"/>
<path fill-rule="evenodd" clip-rule="evenodd" d="M63.3574 33.3531C54.9942 27.637 42.2896 31.5789 36.9826 34.2643C30.2643 37.7743 21.8052 44.6125 23.5899 52.0552C23.8325 52.6899 24.1308 53.4731 24.4482 54.3103C24.7078 54.8043 25.0165 55.2996 25.3777 55.7957C31.4677 63.2285 49.339 58.6663 57.2517 53.5832C63.383 49.6444 68.21 42.4984 66.0907 36.7895L66.0789 36.7579C65.6144 35.5267 64.7431 34.3733 63.3574 33.3531ZM51.6085 54.5009C37.7978 60.7565 28.7024 56.9946 26.6724 54.5009C24.6423 52.0073 21.5415 44.0471 37.7978 35.655C50.0261 29.8525 59.0893 32.2502 62.1584 34.2643C64.1807 35.5915 65.0598 37.5572 64.9832 39.779C64.8072 44.8805 59.7606 50.8084 51.6085 54.5009Z" fill="#76C5F0"/>
<path d="M57.2517 53.5832C49.339 58.6663 31.4677 63.2285 25.3777 55.7957C25.0165 55.2996 24.7078 54.8043 24.4482 54.3103C25.4575 56.9726 26.7796 60.7106 28.8149 62.8384C30.8502 64.9661 39.8156 68.8997 53.8949 62.8384C67.9742 56.777 69.9748 48.8583 69.2555 45.2458L66.0907 36.7895C68.21 42.4984 63.383 49.6444 57.2517 53.5832Z" fill="#068CD0"/>
<path d="M26.6724 54.5009C28.7024 56.9946 37.7978 60.7565 51.6085 54.5009C59.7606 50.8084 64.8072 44.8805 64.9832 39.779M26.6724 54.5009C24.6423 52.0073 21.5415 44.0471 37.7978 35.655C50.0261 29.8525 59.0893 32.2502 62.1584 34.2643C64.1807 35.5915 65.0598 37.5572 64.9832 39.779M26.6724 54.5009C27.3916 51.6557 31.1607 45.006 40.483 41.1697C55.3488 35.0521 61.5828 38.3404 64.9832 39.779M66.0789 36.7579C65.6144 35.5267 64.7431 34.3733 63.3574 33.3531C54.9942 27.637 42.2896 31.5789 36.9826 34.2643C30.2643 37.7743 21.8052 44.6125 23.5899 52.0552M66.0789 36.7579L66.0907 36.7895M66.0789 36.7579C66.0829 36.7684 66.0868 36.779 66.0907 36.7895M23.5899 52.0552C23.8325 52.6899 24.1308 53.4731 24.4482 54.3103M23.5899 52.0552C23.769 52.8018 24.051 53.5544 24.4482 54.3103M24.4482 54.3103C24.7078 54.8043 25.0165 55.2996 25.3777 55.7957C31.4677 63.2285 49.339 58.6663 57.2517 53.5832C63.383 49.6444 68.21 42.4984 66.0907 36.7895M24.4482 54.3103C25.4575 56.9726 26.7796 60.7106 28.8149 62.8384C30.8502 64.9661 39.8156 68.8997 53.8949 62.8384C67.9742 56.777 69.9748 48.8583 69.2555 45.2458L66.0907 36.7895" stroke="#068CD0" stroke-width="0.0959082"/>
<path d="M47.0295 23.9231C46.6413 24.0075 46.395 24.3906 46.4794 24.7788C46.5637 25.167 46.9468 25.4133 47.335 25.329L47.0295 23.9231ZM30.9254 70.9435L37.467 76.0617L38.6287 67.8374L30.9254 70.9435ZM75.6085 48.8349C72.5293 61.9211 57.7509 72.7826 37.3925 71.1318L37.2762 72.5657C58.1584 74.2589 73.7275 63.1098 77.0088 49.1644L75.6085 48.8349ZM47.335 25.329C56.5742 23.3212 64.4914 25.6526 69.6625 30.2323C74.8332 34.8117 77.2956 41.6646 75.6085 48.8349L77.0088 49.1644C78.8232 41.4537 76.1636 34.0682 70.6163 29.1553C65.0693 24.2426 56.6726 21.8277 47.0295 23.9231L47.335 25.329Z" fill="#068CD0"/>
<path d="M12.6072 23.46V12.42C12.6072 11.56 13.2872 10.88 14.1472 10.88C15.0072 10.88 15.6872 11.56 15.6872 12.42V22.2H21.3872C22.1672 22.2 22.7872 22.82 22.7872 23.6C22.7872 24.38 22.1672 25 21.3872 25H14.1472C13.2872 25 12.6072 24.32 12.6072 23.46Z" fill="#00699E"/>
<path d="M59.4295 87.27C59.4295 86.97 59.5695 86.71 59.8295 86.5L61.8195 84.87C62.6895 84.16 63.0295 83.77 63.0295 83.19C63.0295 82.6 62.6395 82.28 62.0895 82.28C61.6495 82.28 61.3395 82.47 60.9495 82.89C60.8495 83 60.6695 83.11 60.4295 83.11C60.0395 83.11 59.7295 82.8 59.7295 82.41C59.7295 82.24 59.7995 82.06 59.9095 81.93C60.4695 81.28 61.1295 80.9 62.1895 80.9C63.6395 80.9 64.5995 81.75 64.5995 83.06V83.08C64.5995 84.25 63.9995 84.83 62.7595 85.79L61.6195 86.67H64.0595C64.4295 86.67 64.7295 86.97 64.7295 87.34C64.7295 87.71 64.4295 88 64.0595 88H60.2595C59.7795 88 59.4295 87.73 59.4295 87.27ZM69.07 88.12C67.2 88.12 65.97 86.55 65.97 84.52V84.5C65.97 82.47 67.23 80.88 69.09 80.88C70.94 80.88 72.19 82.45 72.19 84.48V84.5C72.19 86.53 70.94 88.12 69.07 88.12ZM69.09 86.73C70.02 86.73 70.61 85.79 70.61 84.52V84.5C70.61 83.23 69.99 82.27 69.07 82.27C68.15 82.27 67.55 83.2 67.55 84.48V84.5C67.55 85.78 68.16 86.73 69.09 86.73ZM76.1447 88.12C74.5347 88.12 73.3547 86.88 73.3547 85.35V85.33C73.3547 83.8 74.5247 82.54 76.1647 82.54C76.9747 82.54 77.5447 82.76 77.9947 83.14C78.0947 83.22 78.2347 83.4 78.2347 83.66C78.2347 84.04 77.9247 84.34 77.5447 84.34C77.3447 84.34 77.1947 84.26 77.1047 84.19C76.8347 83.98 76.5547 83.85 76.1547 83.85C75.3947 83.85 74.8547 84.52 74.8547 85.31V85.33C74.8547 86.15 75.3847 86.81 76.2147 86.81C76.6147 86.81 76.9247 86.67 77.2147 86.44C77.2947 86.38 77.4447 86.3 77.6247 86.3C77.9847 86.3 78.2647 86.59 78.2647 86.95C78.2647 87.15 78.1747 87.31 78.0447 87.43C77.5947 87.84 77.0247 88.12 76.1447 88.12ZM79.5276 87.3V83.34C79.5276 82.92 79.8676 82.58 80.2876 82.58C80.7076 82.58 81.0476 82.92 81.0476 83.34V83.4C81.3976 82.95 81.8576 82.54 82.6276 82.54C83.3276 82.54 83.8576 82.85 84.1376 83.39C84.6076 82.84 85.1676 82.54 85.8976 82.54C87.0276 82.54 87.7076 83.22 87.7076 84.51V87.3C87.7076 87.72 87.3676 88.06 86.9476 88.06C86.5276 88.06 86.1876 87.72 86.1876 87.3V85.01C86.1876 84.29 85.8676 83.92 85.2976 83.92C84.7276 83.92 84.3776 84.29 84.3776 85.01V87.3C84.3776 87.72 84.0376 88.06 83.6176 88.06C83.1976 88.06 82.8576 87.72 82.8576 87.3V85.01C82.8576 84.29 82.5376 83.92 81.9676 83.92C81.3976 83.92 81.0476 84.29 81.0476 85.01V87.3C81.0476 87.72 80.7076 88.06 80.2876 88.06C79.8676 88.06 79.5276 87.72 79.5276 87.3Z" fill="#00699E"/>
</svg>
