<svg width="97" height="96" viewBox="0 0 97 96" fill="none" xmlns="http://www.w3.org/2000/svg">
<rect x="0.92749" width="95.145" height="95.145" fill="#E4F6FF"/>
<path d="M62.3295 35.2877C59.4899 33.4242 51.1043 31.2057 39.7901 36.5744C24.749 44.3392 27.618 51.7043 29.4964 54.0115C30.1619 51.3789 33.6492 45.2264 42.2746 41.6768C56.029 36.0166 61.797 39.059 64.9432 40.3901C65.0141 38.3344 64.2007 36.5156 62.3295 35.2877Z" fill="#00699E"/>
<path fill-rule="evenodd" clip-rule="evenodd" d="M63.4389 34.4446C55.7009 29.1558 43.9461 32.803 39.0359 35.2877C32.8198 38.5353 24.9931 44.8623 26.6444 51.7486C26.8688 52.3358 27.1448 53.0605 27.4385 53.8351C27.6786 54.2921 27.9643 54.7505 28.2985 55.2094C33.9332 62.0866 50.4685 57.8655 57.7897 53.1624C63.4627 49.518 67.9288 42.9062 65.9679 37.6241L65.957 37.5949C65.5272 36.4557 64.7211 35.3886 63.4389 34.4446ZM52.5683 54.0115C39.7901 59.7994 31.3747 56.3187 29.4964 54.0115C27.618 51.7043 24.749 44.3392 39.7901 36.5744C51.1043 31.2057 59.4899 33.4242 62.3295 35.2877C64.2007 36.5156 65.0141 38.3344 64.9432 40.3901C64.7804 45.1102 60.111 50.595 52.5683 54.0115Z" fill="#76C5F0"/>
<path d="M57.7897 53.1624C50.4685 57.8655 33.9332 62.0866 28.2985 55.2094C27.9643 54.7505 27.6786 54.2921 27.4385 53.8351C28.3723 56.2984 29.5956 59.7569 31.4787 61.7256C33.3619 63.6943 41.657 67.3339 54.6838 61.7256C67.7106 56.1174 69.5616 48.7907 68.8961 45.4482L65.9679 37.6241C67.9288 42.9062 63.4627 49.518 57.7897 53.1624Z" fill="#068CD0"/>
<path d="M29.4964 54.0115C31.3747 56.3187 39.7901 59.7994 52.5683 54.0115C60.111 50.595 64.7804 45.1102 64.9432 40.3901M29.4964 54.0115C27.618 51.7043 24.749 44.3392 39.7901 36.5744C51.1043 31.2057 59.4899 33.4242 62.3295 35.2877C64.2007 36.5156 65.0141 38.3344 64.9432 40.3901M29.4964 54.0115C30.1619 51.3789 33.6492 45.2264 42.2746 41.6768C56.029 36.0166 61.797 39.059 64.9432 40.3901M65.957 37.5949C65.5272 36.4557 64.7211 35.3886 63.4389 34.4446C55.7009 29.1558 43.9461 32.803 39.0359 35.2877C32.8198 38.5353 24.9931 44.8623 26.6444 51.7486M65.957 37.5949L65.9679 37.6241M65.957 37.5949C65.9607 37.6046 65.9643 37.6144 65.9679 37.6241M26.6444 51.7486C26.8688 52.3358 27.1448 53.0605 27.4385 53.8351M26.6444 51.7486C26.81 52.4393 27.071 53.1357 27.4385 53.8351M27.4385 53.8351C27.6786 54.2921 27.9643 54.7505 28.2985 55.2094C33.9332 62.0866 50.4685 57.8655 57.7897 53.1624C63.4627 49.518 67.9288 42.9062 65.9679 37.6241M27.4385 53.8351C28.3723 56.2984 29.5956 59.7569 31.4787 61.7256C33.3619 63.6943 41.657 67.3339 54.6838 61.7256C67.7106 56.1174 69.5616 48.7907 68.8961 45.4482L65.9679 37.6241" stroke="#068CD0" stroke-width="0.0887384"/>
<path d="M48.3317 25.7196C47.9725 25.7976 47.7446 26.1521 47.8227 26.5113C47.9007 26.8705 48.2552 27.0984 48.6144 27.0203L48.3317 25.7196ZM33.4315 69.2249L39.4841 73.9604L40.5589 66.351L33.4315 69.2249ZM74.7742 48.7691C71.9253 60.8769 58.2516 70.9264 39.4151 69.3991L39.3076 70.7258C58.6287 72.2924 73.0339 61.9768 76.0699 49.0739L74.7742 48.7691ZM48.6144 27.0203C57.1629 25.1627 64.4883 27.3197 69.2727 31.5571C74.0569 35.7941 76.3352 42.1348 74.7742 48.7691L76.0699 49.0739C77.7486 41.9397 75.2878 35.1063 70.1552 30.5606C65.0229 26.0152 57.2539 23.7808 48.3317 25.7196L48.6144 27.0203Z" fill="#068CD0"/>
<path d="M12.6798 23.62V12.46C12.6798 11.6 13.3598 10.92 14.2198 10.92H14.5598C15.2198 10.92 15.6798 11.26 15.9598 11.72L19.6798 17.78L23.4198 11.7C23.7398 11.18 24.1798 10.92 24.7998 10.92H25.1398C25.9998 10.92 26.6798 11.6 26.6798 12.46V23.58C26.6798 24.44 25.9998 25.12 25.1398 25.12C24.2998 25.12 23.6198 24.42 23.6198 23.58V16.6L20.9198 20.76C20.5998 21.24 20.1998 21.54 19.6398 21.54C19.0798 21.54 18.6798 21.24 18.3598 20.76L15.6998 16.66V23.62C15.6998 24.46 15.0198 25.12 14.1798 25.12C13.3398 25.12 12.6798 24.46 12.6798 23.62Z" fill="#00699E"/>
<path d="M60.852 87.3V82.46L60.312 82.6C60.232 82.62 60.122 82.64 60.042 82.64C59.682 82.64 59.372 82.34 59.372 81.98C59.372 81.67 59.572 81.41 59.882 81.32L60.872 81.03C61.162 80.95 61.382 80.9 61.592 80.9H61.612C62.032 80.9 62.372 81.24 62.372 81.66V87.3C62.372 87.72 62.032 88.06 61.612 88.06C61.192 88.06 60.852 87.72 60.852 87.3ZM66.6408 88.1C65.0908 88.1 63.9408 87.3 63.9408 86.08V86.06C63.9408 85.21 64.3308 84.71 65.0708 84.37C64.5308 84.04 64.1808 83.59 64.1808 82.84V82.82C64.1808 81.75 65.1608 80.9 66.6408 80.9C68.1208 80.9 69.1008 81.74 69.1008 82.82V82.84C69.1008 83.59 68.7508 84.04 68.2108 84.37C68.9208 84.74 69.3408 85.19 69.3408 86.02V86.04C69.3408 87.34 68.1908 88.1 66.6408 88.1ZM66.6408 83.86C67.2508 83.86 67.6408 83.5 67.6408 83.01V82.99C67.6408 82.56 67.2708 82.17 66.6408 82.17C66.0108 82.17 65.6408 82.55 65.6408 82.98V83C65.6408 83.49 66.0308 83.86 66.6408 83.86ZM66.6408 86.83C67.4008 86.83 67.8508 86.45 67.8508 85.96V85.94C67.8508 85.4 67.3408 85.08 66.6408 85.08C65.9408 85.08 65.4308 85.4 65.4308 85.94V85.96C65.4308 86.44 65.8808 86.83 66.6408 86.83ZM73.1996 88.12C71.5896 88.12 70.4096 86.88 70.4096 85.35V85.33C70.4096 83.8 71.5796 82.54 73.2196 82.54C74.0296 82.54 74.5996 82.76 75.0496 83.14C75.1496 83.22 75.2896 83.4 75.2896 83.66C75.2896 84.04 74.9796 84.34 74.5996 84.34C74.3996 84.34 74.2496 84.26 74.1596 84.19C73.8896 83.98 73.6096 83.85 73.2096 83.85C72.4496 83.85 71.9096 84.52 71.9096 85.31V85.33C71.9096 86.15 72.4396 86.81 73.2696 86.81C73.6696 86.81 73.9796 86.67 74.2696 86.44C74.3496 86.38 74.4996 86.3 74.6796 86.3C75.0396 86.3 75.3196 86.59 75.3196 86.95C75.3196 87.15 75.2296 87.31 75.0996 87.43C74.6496 87.84 74.0796 88.12 73.1996 88.12ZM76.5825 87.3V83.34C76.5825 82.92 76.9225 82.58 77.3425 82.58C77.7625 82.58 78.1025 82.92 78.1025 83.34V83.4C78.4525 82.95 78.9125 82.54 79.6825 82.54C80.3825 82.54 80.9125 82.85 81.1925 83.39C81.6625 82.84 82.2225 82.54 82.9525 82.54C84.0825 82.54 84.7625 83.22 84.7625 84.51V87.3C84.7625 87.72 84.4225 88.06 84.0025 88.06C83.5825 88.06 83.2425 87.72 83.2425 87.3V85.01C83.2425 84.29 82.9225 83.92 82.3525 83.92C81.7825 83.92 81.4325 84.29 81.4325 85.01V87.3C81.4325 87.72 81.0925 88.06 80.6725 88.06C80.2525 88.06 79.9125 87.72 79.9125 87.3V85.01C79.9125 84.29 79.5925 83.92 79.0225 83.92C78.4525 83.92 78.1025 84.29 78.1025 85.01V87.3C78.1025 87.72 77.7625 88.06 77.3425 88.06C76.9225 88.06 76.5825 87.72 76.5825 87.3Z" fill="#00699E"/>
</svg>
