<svg width="22" height="23" viewBox="0 0 22 23" fill="none" xmlns="http://www.w3.org/2000/svg">
<path id="Add to Cart Logo" fill-rule="evenodd" clip-rule="evenodd" d="M18.7984 4.87112C20.2842 5.54648 21.2184 6.95346 21.4435 8.8332C21.5336 9.54232 21.5111 10.2965 21.4098 11.0506C21.0946 13.313 20.0028 15.5755 18.5508 16.7123C17.4477 17.5678 16.0407 17.9842 14.6112 18.1756C13.7445 18.2994 12.8666 18.3332 12.0449 18.3332C11.7522 18.3332 11.4596 18.3332 11.1782 18.3219C9.10709 18.2656 6.47321 18.0293 4.57096 16.6786C2.0163 14.8667 2.30843 11.0181 2.56729 7.608L2.56741 7.60631L2.57739 7.47807C2.66394 6.36563 2.74626 5.3077 2.71374 4.36461C2.75876 2.95762 1.2955 2.67623 1.12666 2.65371C0.676424 2.57492 0.361259 2.1472 0.428794 1.68571C0.507585 1.23547 0.935309 0.931562 1.38554 0.987841C2.4436 1.14542 4.41338 2.0459 4.40212 4.29707C4.40212 4.35367 4.40311 4.4102 4.40449 4.46672C4.40989 4.68711 4.59726 4.86298 4.8175 4.85323L4.81755 4.85323C6.98605 4.75415 9.14426 4.65554 11.3132 4.57847C12.5289 4.53345 13.7333 4.49968 14.9489 4.47717C15.0502 4.47717 15.1487 4.47435 15.2472 4.47154C15.3457 4.46873 15.4442 4.46591 15.5455 4.46591L15.5867 4.46455C16.6005 4.43103 17.7323 4.39361 18.7984 4.87112ZM5.49811 19.6918C4.69444 19.6918 4.04047 20.3446 4.04047 21.1483C4.04047 21.952 4.69444 22.6059 5.49811 22.6059C6.30178 22.6059 6.95462 21.952 6.95462 21.1483C6.95462 20.3446 6.30178 19.6918 5.49811 19.6918ZM15.6701 21.1483C15.6701 20.3446 16.3229 19.6918 17.1266 19.6918C17.9303 19.6918 18.5842 20.3446 18.5842 21.1483C18.5842 21.952 17.9303 22.6059 17.1266 22.6059C16.3229 22.6059 15.6701 21.952 15.6701 21.1483ZM11.0196 12.5899V14.2436C11.0196 14.8045 11.4797 15.2646 12.0405 15.2646C12.6014 15.2646 13.0615 14.8045 13.0615 14.2436V12.5899H14.7584C15.3048 12.5899 15.7506 12.1441 15.7506 11.5977C15.7506 11.0512 15.3048 10.6054 14.7584 10.6054H13.0615V8.95173C13.0615 8.39091 12.6014 7.93074 12.0405 7.93074C11.4797 7.93074 11.0196 8.39091 11.0196 8.95173V10.6054H9.3227C8.77625 10.6054 8.33047 11.0512 8.33047 11.5977C8.33047 12.1441 8.77625 12.5899 9.3227 12.5899H11.0196Z" fill="white"/>
</svg>
