<svg width="31" height="32" viewBox="0 0 31 32" fill="none" xmlns="http://www.w3.org/2000/svg">
<g id="Info Symbol">
<circle id="Ellipse 1016" cx="15.5" cy="16" r="14.5" stroke="black" stroke-width="2"/>
<path id="i" d="M13.834 10.512V10.4706C13.834 9.55925 14.6004 9 15.5946 9C16.5888 9 17.3552 9.55925 17.3552 10.4706V10.512C17.3552 11.4234 16.5888 12.0034 15.5946 12.0034C14.6004 12.0034 13.834 11.4234 13.834 10.512ZM14.0204 21.5249V14.9777C14.0204 14.1077 14.7246 13.4035 15.5946 13.4035C16.4645 13.4035 17.1688 14.1077 17.1688 14.9777V21.5249C17.1688 22.3949 16.4645 23.0991 15.5946 23.0991C14.7246 23.0991 14.0204 22.3949 14.0204 21.5249Z" fill="black"/>
</g>
</svg>
