<svg width="54" height="54" viewBox="0 0 54 54" fill="none" xmlns="http://www.w3.org/2000/svg">
<circle cx="27" cy="27" r="27" fill="#068CD0"/>
<path d="M26.849 16.8329C20.6383 16.8329 16.1379 21.9074 16.1379 27.5386C16.1379 29.3372 16.6617 31.1892 17.581 32.8808C17.7521 33.1591 17.7735 33.5124 17.6559 33.8443L16.9397 36.2423C16.7793 36.8205 17.271 37.2487 17.8162 37.0774L19.9755 36.435C20.5635 36.2423 21.0231 36.4886 21.5683 36.8205C23.129 37.7411 25.0745 38.2122 26.8276 38.2122C32.1297 38.2122 37.5173 34.1119 37.5173 27.5065C37.5173 21.811 32.9207 16.8329 26.849 16.8329" fill="white"/>
<path d="M21.4828 24.3157H26.8429" stroke="#068CD0" stroke-width="1.06897" stroke-linecap="round"/>
<path d="M21.4828 27.5226H25.2471H29.0114" stroke="#068CD0" stroke-width="1.06897" stroke-linecap="round"/>
<path d="M21.4828 30.7295H30.3399" stroke="#068CD0" stroke-width="1.06897" stroke-linecap="round"/>
<g clip-path="url(#clip0_625_8295)">
<path d="M38.4835 26.3809C38.4835 26.1676 38.5965 25.9703 38.7804 25.8624C40.2802 24.9819 41.4695 23.2822 41.4695 21.5488C41.4695 18.5198 38.5945 16.1006 35.2907 16.7993C33.8451 17.1103 32.591 18.0413 31.9448 19.303L31.9448 19.303C30.6384 21.8533 31.9897 24.6212 34.094 25.8553C34.2781 25.9632 34.3911 26.1606 34.3911 26.374V28.2155C34.3911 28.2367 34.3906 28.2572 34.3902 28.2722L34.3901 28.2755C34.413 28.2775 34.4407 28.2788 34.474 28.2788H36.4373H38.4007V28.2787L38.406 28.2788C38.4346 28.279 38.4606 28.2788 38.4841 28.2781C38.4837 28.26 38.4835 28.2412 38.4835 28.2224V26.3809ZM34.3908 28.3777C34.3908 28.3777 34.3908 28.3773 34.3906 28.3765L34.3908 28.3777Z" fill="#068CD0" stroke="white" stroke-width="1.20259" stroke-linecap="round" stroke-linejoin="round"/>
<path d="M38 22L36.555 24L35 22" stroke="white" stroke-width="1.20457" stroke-linecap="round" stroke-linejoin="round"/>
<path d="M35.0257 15.5618L35.0277 15.5614C39.0871 14.7021 42.7351 17.6828 42.7351 21.5488C42.7351 23.6897 41.3957 25.6452 39.7491 26.7478V28.2224C39.7491 28.2502 39.7499 28.2767 39.7509 28.3126C39.7511 28.3205 39.7514 28.3289 39.7516 28.3379C39.7528 28.3816 39.7543 28.4421 39.752 28.5051C39.7477 28.6246 39.7288 28.8329 39.6034 29.038C39.3247 29.4937 38.7938 29.5475 38.3979 29.5443H34.474C33.9625 29.5443 33.4977 29.3788 33.2607 28.9372C33.1607 28.7509 33.1344 28.569 33.1266 28.4462C33.1226 28.3834 33.123 28.3277 33.1238 28.288C33.1244 28.2603 33.1248 28.2466 33.1251 28.2374C33.1254 28.2287 33.1256 28.2241 33.1256 28.2155V26.7407C30.7815 25.1666 29.2012 21.883 30.8184 18.726C31.6492 17.104 33.2332 15.947 35.0257 15.5618Z" stroke="#068CD0" stroke-width="1.32857" stroke-linecap="round" stroke-linejoin="round"/>
</g>
<path d="M32.1724 15.2295L30.3857 13.6108M36.4483 14.1605V11.8394M40.1896 15.2295L41.9 13.6108" stroke="white" stroke-width="1.06897" stroke-linecap="round"/>
<defs>
<clipPath id="clip0_625_8295">
<rect width="17.1034" height="18.1724" fill="white" transform="matrix(-1 0 0 1 45 14.695)"/>
</clipPath>
</defs>
</svg>
